<?xml version="1.0" encoding="iso-8859-1"?>
<!-- Generator: Adobe Illustrator 19.0.0, SVG Export Plug-In . SVG Version: 6.00 Build 0)  -->
<svg version="1.1" id="Layer_1" xmlns="http://www.w3.org/2000/svg" xmlns:xlink="http://www.w3.org/1999/xlink" x="0px" y="0px"
	 viewBox="0 0 458.502 458.502" style="enable-background:new 0 0 458.502 458.502;" xml:space="preserve">
<g>
	<g>
		<g>
			<path style="fill:#03A9F4" d="M88.251,53.336c0,0.001-0.001,0.002-0.001,0.003c16.512,0,63.066,0.322,109.679,0.322c5.339,0,9.667-4.328,9.667-9.667
				c0-5.339-4.328-9.668-9.667-9.668h-28.156c-5.996-13.72-18.17-24.384-32.854-27.408C137.695,3.175,133.552,0,128.437,0
				c-5.135,0-9.247,3.187-8.484,6.911c-19.724,4.061-34.932,21.912-36.703,42.425c-0.089,1.029,0.258,2.048,0.957,2.809
				C85.456,53.506,86.859,53.336,88.251,53.336z"/>
			<path style="fill:#925e11" d="M426.175,290.22c-0.341-0.87-36.24-87.426-48.664-123.581c-8.058-23.447-21.569-35.336-40.157-35.336H277.18
				c-18.588,0-32.099,11.889-40.157,35.336c-4.663,13.569-11.538,32.888-18.339,51.813l-6.931-59.48
				c-0.706-22.473-19.263-40.572-41.876-40.572c-3.349,0-78.122,0-81.699,0c-22.614,0-41.17,18.099-41.876,40.572L31.243,288.194
				c-1.131,9.712,5.825,18.503,15.537,19.635c9.749,1.13,18.506-5.854,19.634-15.537C81.081,166.426,81.911,158.896,81.946,158.52
				l0.008,278.736c0,11.733,9.512,21.245,21.245,21.245c11.733,0,21.245-9.512,21.245-21.245v-149.19h9.173v149.191
				c0,11.733,9.512,21.245,21.245,21.245c11.733,0,21.245-9.512,21.245-21.245c0-286.926-0.385-114.357-0.385-279.752
				c0.518,1.077-0.819-8.838,15.916,134.788c1.051,9.017,8.702,15.629,17.563,15.657c12.405,0.039,18.311-11.937,19.312-14.676
				c0.253-0.69,22.404-61.294,36.28-100.761l-23.585,121.771c-0.548,2.828,0.198,5.751,2.029,7.974
				c1.832,2.223,4.563,3.52,7.443,3.52c3.741,0,8.229,0,13.253,0v111.479c0,11.51,9.331,20.841,20.841,20.841
				s20.841-9.331,20.841-20.841v-111.48c2.996,0,6.002,0,8.998,0v111.479c0,11.51,9.331,20.841,20.841,20.841
				s20.841-9.331,20.841-20.841V325.777c5.025,0,9.513,0,13.252,0c2.882,0,5.613-1.289,7.446-3.513s2.574-5.151,2.026-7.981
				l-23.87-120.715c0,0,37.737,106.908,38.687,109.332c3.502,8.931,13.58,13.33,22.509,9.829
				C425.278,309.228,429.677,299.15,426.175,290.22z"/>
			<path style="fill:#F44336" d="M253.206,87.659c6.907,0,12.938-3.679,16.291-9.173c2.158,20.53,19.519,36.53,40.62,36.53s38.462-16,40.62-36.53
				c3.353,5.493,9.384,9.173,16.291,9.173c10.545,0,18.61,0.967,25.861,17.885c13.535-26.863-9.184-56.072-25.861-56.072
				c-8.232,0-15.226,5.219-17.908,12.521c-5.181-16.614-20.683-28.674-39.003-28.674c-18.32,0-33.823,12.06-39.003,28.674
				c-2.682-7.302-9.676-12.521-17.908-12.521c-16.677,0-39.395,29.209-25.861,56.072C234.594,88.626,242.659,87.659,253.206,87.659z
				"/>
			<path style="fill:#03a9f4" d="M128.437,101.482c18.368,0,33.903-12.125,39.042-28.807H89.394C94.534,89.357,110.068,101.482,128.437,101.482z"/>
		</g>
	</g>
</g>
<g>
</g>
<g>
</g>
<g>
</g>
<g>
</g>
<g>
</g>
<g>
</g>
<g>
</g>
<g>
</g>
<g>
</g>
<g>
</g>
<g>
</g>
<g>
</g>
<g>
</g>
<g>
</g>
<g>
</g>
</svg>
