<?xml version="1.0" ?><svg viewBox="0 0 100 100" xmlns="http://www.w3.org/2000/svg"><title/><circle cx="50" cy="50" fill="#e6e6e6" r="49.5"/><path d="M90.48553,55.87512h-.00085a4.52291,4.52291,0,0,0-.021-.86725,40.7933,40.7933,0,0,0-80.92737,0,4.52755,4.52755,0,0,0-.02594.75H9.5v7.072h.012a4.64771,4.64771,0,0,0,4.6485,4.38165h71.679a4.63716,4.63716,0,0,0,4.64606-4.85895Z" fill="#2b687f"/><path d="M14.565,59.10962A37.63279,37.63279,0,0,1,25.92719,35.96637a36.18993,36.18993,0,0,1,11.051-7.2392,35.30994,35.30994,0,0,1,26.18878-.36133A36.78044,36.78044,0,0,1,74.6026,35.39557a38.8106,38.8106,0,0,1,12.379,23.52625l.0014.0105a2.50036,2.50036,0,0,1-4.95551.671c-.00287-.02142-.00671-.054-.009-.07532A34.19309,34.19309,0,0,0,71.7348,38.4928a32.752,32.752,0,0,0-9.98773-6.5683,31.86768,31.86768,0,0,0-23.63782-.36218,33.33034,33.33034,0,0,0-10.373,6.35809A35.35489,35.35489,0,0,0,16.435,59.33789a.942.942,0,0,1-1.87-.22827Z" fill="#10556b"/><path d="M50,38.504A22.98354,22.98354,0,0,0,27.20356,58.57051a2.61136,2.61136,0,0,0,2.60519,2.91283H70.19126a2.61136,2.61136,0,0,0,2.60519-2.91283A22.98354,22.98354,0,0,0,50,38.504Z" fill="#4d4d4d"/><circle cx="50.37545" cy="61.48333" fill="#ffab80" r="9.12676"/><path d="M46.983,60.56833,61.31124,37.769a1.56046,1.56046,0,0,1,2.74453,1.47L53.017,63.80021a3.43076,3.43076,0,1,1-6.25849-2.81277A3.75584,3.75584,0,0,1,46.983,60.56833Z" fill="#fff"/></svg>