<?xml version="1.0" encoding="iso-8859-1"?>
<!-- Generator: Adobe Illustrator 16.0.0, SVG Export Plug-In . SVG Version: 6.00 Build 0)  -->
<!DOCTYPE svg PUBLIC "-//W3C//DTD SVG 1.1//EN" "http://www.w3.org/Graphics/SVG/1.1/DTD/svg11.dtd">
<svg version="1.1" id="Capa_1" xmlns="http://www.w3.org/2000/svg" xmlns:xlink="http://www.w3.org/1999/xlink" x="0px" y="0px"
	 width="95.667px" height="95.667px" viewBox="0 0 95.667 95.667" style="enable-background:new 0 0 95.667 95.667;"
	 xml:space="preserve">
<g>
	<g>
		<path style="fill:white" d="M93.546,35.661H59.492V25.056c0-0.715-0.381-1.375-1-1.732c-0.619-0.357-1.381-0.357-2,0L17.046,46.101
			c-0.619,0.357-1,1.018-1,1.732s0.381,1.375,1,1.731l39.446,22.778c0.311,0.179,0.654,0.269,1,0.269s0.689-0.09,1-0.269
			c0.619-0.356,1-1.018,1-1.731V60.005h34.054c1.104,0,2-0.896,2-2V37.661C95.546,36.557,94.65,35.661,93.546,35.661z"/>
		<path style="fill:white" d="M55.641,85.667H14.892c-2.631,0-4.771-2.142-4.771-4.771V14.771c0-2.631,2.141-4.771,4.771-4.771h40.749
			c1.104,0,2-0.896,2-2V2c0-1.104-0.896-2-2-2H14.892C6.746,0,0.121,6.627,0.121,14.771v66.125c0,8.145,6.626,14.771,14.771,14.771
			h40.749c1.104,0,2-0.896,2-2v-6C57.641,86.562,56.744,85.667,55.641,85.667z"/>
	</g>
</g>
<g>
</g>
<g>
</g>
<g>
</g>
<g>
</g>
<g>
</g>
<g>
</g>
<g>
</g>
<g>
</g>
<g>
</g>
<g>
</g>
<g>
</g>
<g>
</g>
<g>
</g>
<g>
</g>
<g>
</g>
</svg>
