<?xml version="1.0" encoding="iso-8859-1"?>
<!-- Generator: Adobe Illustrator 16.0.0, SVG Export Plug-In . SVG Version: 6.00 Build 0)  -->
<!DOCTYPE svg PUBLIC "-//W3C//DTD SVG 1.1//EN" "http://www.w3.org/Graphics/SVG/1.1/DTD/svg11.dtd">
<svg version="1.1" id="Capa_1" xmlns="http://www.w3.org/2000/svg" xmlns:xlink="http://www.w3.org/1999/xlink" x="0px" y="0px"
	 width="106.048px" height="106.048px" viewBox="0 0 106.048 106.048" style="enable-background:new 0 0 106.048 106.048;"
	 xml:space="preserve">
<g>
	<path style="fill:#3F51B5;" d="M84.838,0H21.209C9.543,0,0,9.543,0,21.209v63.629c0,11.661,9.543,21.21,21.209,21.21h63.628
		c11.667,0,21.21-9.549,21.21-21.21V21.209C106.048,9.543,96.505,0,84.838,0z M76.584,18.68c3.216,0,5.831,2.61,5.831,5.833
		c0,3.224-2.61,5.833-5.831,5.833s-5.846-2.61-5.846-5.833C70.738,21.29,73.363,18.68,76.584,18.68z M53.019,54.143
		c1.979,0,3.583,1.595,3.583,3.572c0,1.979-1.604,3.573-3.583,3.573c-1.983,0-3.591-1.595-3.591-3.573
		C49.428,55.737,51.035,54.143,53.019,54.143z M29.461,18.695c3.218,0,5.843,2.61,5.843,5.833c0,3.218-2.62,5.828-5.843,5.828
		c-3.224,0-5.844-2.61-5.844-5.828C23.617,21.311,26.229,18.695,29.461,18.695z M35.234,64.478l-1.167,21.525
		c0,0.751-0.614,1.372-1.373,1.372c-0.753,0-1.361-0.621-1.361-1.372l-1.264-21.525h-1.3l-1.175,21.525
		c0,0.751-0.611,1.372-1.385,1.372c-0.748,0-1.362-0.621-1.362-1.372l-1.183-21.525h-3.796l3.941-24.133l-7.923,15.78
		c-0.303,0.694-1.103,1.021-1.804,0.73c-0.689-0.295-1.013-1.088-0.715-1.797c0,0,5.812-15.7,7.239-18.626
		c1.429-2.928,2.851-4.709,8.287-4.709h1.114c5.45,0,6.861,1.776,8.292,4.709c1.437,2.926,7.242,18.626,7.242,18.626
		c0.298,0.709-0.036,1.502-0.73,1.797c-0.702,0.301-1.502-0.036-1.794-0.73l-7.91-15.78l3.928,24.133H35.234z M64.167,58.574
		c-0.149,0.238-3.324,5.158-5.188,6.276c-1.822,1.098-1.864,0.61-2.051,2.216l-0.207,4.729l0.663,13.758
		c0.036,0.113,0,0.776-0.011,0.803c-0.196,0.585-0.734,1.01-1.377,1.01c-0.632,0-1.139-0.394-1.367-0.942
		c0-0.011-1.61-11.206-1.61-11.206S51.4,86.412,51.4,86.423c-0.207,0.549-0.735,0.942-1.352,0.942c-0.646,0-1.178-0.425-1.367-1.01
		c-0.028-0.031-0.064-0.694-0.028-0.803l0.658-13.758l-0.205-4.729c-0.176-1.605-0.218-1.118-2.048-2.216
		c-1.861-1.118-5.033-6.038-5.191-6.276c-0.153-0.248-0.445-0.678-0.492-0.947c-0.101-0.502,0.228-0.969,0.72-1.066
		c0.375-0.062,0.683,0.129,0.916,0.394c0.257,0.264,3.904,5.126,6.646,5.592c0.619-0.088,1.281-0.414,3.016-0.414h0.691
		c1.74,0,2.403,0.331,3.02,0.414c2.739-0.466,6.39-5.328,6.633-5.592c0.238-0.265,0.549-0.456,0.932-0.394
		c0.487,0.098,0.809,0.564,0.715,1.066C64.612,57.896,64.322,58.326,64.167,58.574z M91.948,56.835
		c-0.694,0.3-1.497-0.036-1.797-0.726l-7.126-15.785l-0.388,12.689h-0.011l1.129,31.896c0.078,1.264-0.859,2.361-2.128,2.444
		c-0.057,0.011-0.108,0.011-0.166,0.011c-1.181,0-2.195-0.922-2.268-2.129l-2.62-26.268l-2.579,26.268
		c-0.093,1.217-1.103,2.129-2.299,2.129c-0.052,0-0.108,0-0.166-0.011c-1.253-0.083-2.2-1.181-2.123-2.444l1.124-31.896
		l-0.389-12.689l-7.135,15.785c-0.28,0.689-1.088,1.025-1.787,0.726c-0.699-0.296-1.02-1.098-0.725-1.802
		c0,0,5.018-15.7,6.441-18.621c1.435-2.928,3.65-4.704,9.093-4.704h1.118c5.442,0,7.653,1.776,9.088,4.704
		c1.439,2.921,6.452,18.621,6.452,18.621C92.979,55.737,92.657,56.539,91.948,56.835z"/>
</g>
<g>
</g>
<g>
</g>
<g>
</g>
<g>
</g>
<g>
</g>
<g>
</g>
<g>
</g>
<g>
</g>
<g>
</g>
<g>
</g>
<g>
</g>
<g>
</g>
<g>
</g>
<g>
</g>
<g>
</g>
</svg>
