<?xml version="1.0" encoding="iso-8859-1"?>
<!-- Generator: Adobe Illustrator 19.0.0, SVG Export Plug-In . SVG Version: 6.00 Build 0)  -->
<svg version="1.1" id="Layer_1" xmlns="http://www.w3.org/2000/svg" xmlns:xlink="http://www.w3.org/1999/xlink" x="0px" y="0px"
	 viewBox="0 0 512 512" style="enable-background:new 0 0 512 512;" xml:space="preserve">
<pattern  x="-50.003" y="652" width="38.312" height="38.312" patternUnits="userSpaceOnUse" id="New_Pattern_Swatch_34" viewBox="0 -38.312 38.312 38.312" style="overflow:visible;">
	<g>
		<polygon style="fill:none;" points="0,0 38.312,0 38.312,-38.312 0,-38.312 		"/>
		<polygon style="fill:none;" points="0,-38.312 38.312,-38.312 38.312,0 0,0 		"/>
		<polygon style="fill:#DAE7B9;" points="38.312,-38.312 0,-38.312 0,0 38.312,0 		"/>
	</g>
</pattern>
<pattern  x="-50.003" y="652" width="38.312" height="38.312" patternUnits="userSpaceOnUse" id="New_Pattern_Swatch_36" viewBox="0 -38.312 38.312 38.312" style="overflow:visible;">
	<g>
		<polygon style="fill:none;" points="0,0 38.312,0 38.312,-38.312 0,-38.312 		"/>
		<polygon style="fill:none;" points="0,-38.312 38.312,-38.312 38.312,0 0,0 		"/>
		<polygon style="fill:#E5E5E5;" points="38.312,-38.312 0,-38.312 0,0 38.312,0 		"/>
	</g>
</pattern>
<pattern  x="-50.003" y="652" width="38.312" height="38.312" patternUnits="userSpaceOnUse" id="New_Pattern_Swatch_39" viewBox="0 -38.312 38.312 38.312" style="overflow:visible;">
	<g>
		<polygon style="fill:none;" points="0,0 38.312,0 38.312,-38.312 0,-38.312 		"/>
		<polygon style="fill:none;" points="0,-38.312 38.312,-38.312 38.312,0 0,0 		"/>
		<polygon style="fill:#C9DCEB;" points="38.312,-38.312 0,-38.312 0,0 38.312,0 		"/>
	</g>
</pattern>
<path style="fill:#3D9AE2;" d="M338.596,0H278.94c-47.277,0-85.602,38.325-85.602,85.602l0,0h145.257V0H338.596z"/>
<path style="fill:#E0E0E2;" d="M483.853,85.602L483.853,85.602C483.853,38.325,445.528,0,398.251,0h-59.655v85.602H483.853z"/>
<pattern  id="SVGID_1_" xlink:href="#New_Pattern_Swatch_39" patternTransform="matrix(1.1175 0 0 -1.1175 115.9634 -21380.668)">
</pattern>
<path style="fill:url(#SVGID_1_);" d="M278.94,171.203h59.656V85.602H193.339l0,0C193.339,132.878,231.664,171.203,278.94,171.203z"
	/>
<path style="fill:#1E81CE;" d="M278.94,171.203h59.656V85.602H193.339l0,0C193.339,132.878,231.664,171.203,278.94,171.203z"/>
<pattern  id="SVGID_2_" xlink:href="#New_Pattern_Swatch_36" patternTransform="matrix(1.1175 0 0 -1.1175 115.9634 -21380.668)">
</pattern>
<path style="fill:url(#SVGID_2_);" d="M338.596,171.203h59.655c47.277,0,85.602-38.325,85.602-85.602l0,0H338.596V171.203z"/>
<path style="fill:#C6C5CA;" d="M338.596,171.203h59.655c47.277,0,85.602-38.325,85.602-85.602l0,0H338.596V171.203z"/>
<rect x="322.552" style="fill:#1E81CE;" width="16.048" height="171.206"/>
<path style="fill:#85BB04;" d="M408.15,512L408.15,512c47.277,0,85.602-38.325,85.602-85.602v-59.656H408.15V512z"/>
<path style="fill:#C6C5CA;" d="M408.15,221.486L408.15,221.486v145.257h85.602v-59.655
	C493.752,259.811,455.427,221.486,408.15,221.486z"/>
<pattern  id="SVGID_3_" xlink:href="#New_Pattern_Swatch_34" patternTransform="matrix(1.1175 0 0 -1.1175 115.9634 -21380.668)">
</pattern>
<path style="fill:url(#SVGID_3_);" d="M322.548,366.742v59.656c0,47.277,38.325,85.602,85.602,85.602l0,0V366.742H322.548z"/>
<path style="fill:#9DDC04;" d="M322.548,366.742v59.656c0,47.277,38.325,85.602,85.602,85.602l0,0V366.742H322.548z"/>
<pattern  id="SVGID_4_" xlink:href="#New_Pattern_Swatch_36" patternTransform="matrix(1.1175 0 0 -1.1175 115.9634 -21380.668)">
</pattern>
<path style="fill:url(#SVGID_4_);" d="M322.548,307.087v59.656h85.602V221.486l0,0C360.874,221.486,322.548,259.811,322.548,307.087
	z"/>
<path style="fill:#E0E0E2;" d="M322.548,307.087v59.656h85.602V221.486l0,0C360.874,221.486,322.548,259.811,322.548,307.087z"/>
<rect x="322.552" y="366.737" style="fill:#85BB04;" width="171.206" height="16.048"/>
<path style="fill:#D80027;" d="M85.494,256.407L43.312,298.59c-33.379,33.379-33.424,87.463-0.146,120.904l102.709-102.709
	L85.494,256.407z"/>
<path style="fill:#E0E0E2;" d="M248.581,214.077c-33.441-33.278-87.526-33.232-120.904,0.146l-42.182,42.182l60.379,60.379
	L248.581,214.077z"/>
<path style="fill:#E4B6BF;" d="M43.311,419.649c33.429,33.43,87.63,33.43,121.059,0l42.182-42.182l-60.681-60.681L43.162,419.495
	C43.215,419.545,43.261,419.598,43.311,419.649L43.311,419.649z"/>
<path style="fill:#AA2300;" d="M43.311,419.649c33.429,33.43,87.63,33.43,121.059,0l42.182-42.182l-60.681-60.681L43.162,419.495
	C43.215,419.545,43.261,419.598,43.311,419.649L43.311,419.649z"/>
<pattern  id="SVGID_5_" xlink:href="#New_Pattern_Swatch_36" patternTransform="matrix(1.1175 0 0 -1.1175 115.9634 -21380.668)">
</pattern>
<path style="fill:url(#SVGID_5_);" d="M206.553,377.466l42.182-42.182c33.43-33.43,33.43-87.63,0-121.059l0,0
	c-0.05-0.05-0.104-0.096-0.154-0.146L145.872,316.787L206.553,377.466z"/>
<path style="fill:#C6C5CA;" d="M206.553,377.466l42.182-42.182c33.43-33.43,33.43-87.63,0-121.059l0,0
	c-0.05-0.05-0.104-0.096-0.154-0.146L145.872,316.787L206.553,377.466z"/>
<rect x="132.32" y="237.003" transform="matrix(-0.7071 0.7071 -0.7071 -0.7071 467.698 451.4829)" style="fill:#AA2300;" width="16.048" height="171.204"/>
<g>
</g>
<g>
</g>
<g>
</g>
<g>
</g>
<g>
</g>
<g>
</g>
<g>
</g>
<g>
</g>
<g>
</g>
<g>
</g>
<g>
</g>
<g>
</g>
<g>
</g>
<g>
</g>
<g>
</g>
</svg>
