<?xml version="1.0" standalone="no"?>
<!DOCTYPE svg PUBLIC "-//W3C//DTD SVG 20010904//EN"
 "http://www.w3.org/TR/2001/REC-SVG-20010904/DTD/svg10.dtd">
<svg version="1.0" xmlns="http://www.w3.org/2000/svg"
 width="600.000000pt" height="600.000000pt" viewBox="0 0 600.000000 600.000000"
 preserveAspectRatio="xMidYMid meet">
<metadata>
Created by potrace 1.11, written by Peter Selinger 2001-2013
</metadata>
<g transform="translate(0.000000,600.000000) scale(0.100000,-0.100000)"
fill="#000000" stroke="none">
<path d="M3457 5992 c7 -4 10 -17 6 -31 l-6 -23 -11 25 -11 26 -20 -27 c-15
-21 -15 -24 -2 -13 12 9 17 10 17 2 0 -6 -7 -14 -15 -17 -8 -4 -12 -10 -9 -15
3 -5 0 -9 -5 -9 -6 0 -11 4 -11 9 0 17 -29 20 -42 3 -12 -15 -11 -16 4 -4 11
9 18 10 23 2 5 -9 -4 -12 -32 -9 -5 0 -7 8 -6 17 1 15 0 15 -12 -1 -10 -13
-14 -15 -18 -5 -2 7 -8 10 -12 6 -4 -4 -2 -14 4 -22 9 -11 9 -16 0 -22 -7 -4
-9 -3 -6 3 4 6 0 16 -8 23 -12 10 -15 10 -15 0 0 -10 -3 -10 -15 0 -13 11 -14
10 -9 -5 6 -14 4 -16 -7 -10 -8 5 -7 1 4 -12 9 -11 14 -23 10 -28 -5 -4 6 -6
24 -3 20 3 30 1 26 -6 -13 -20 -9 -57 5 -51 7 2 11 1 7 -4 -3 -5 1 -12 7 -14
7 -3 2 -6 -12 -6 -17 -1 -21 -4 -12 -10 8 -5 11 -19 8 -37 -2 -16 -5 -34 -5
-41 -1 -7 -8 -10 -18 -7 -15 5 -16 4 -3 -5 13 -9 13 -11 0 -11 -10 0 -11 -3
-4 -8 6 -4 16 -16 22 -27 6 -11 12 -15 12 -8 0 6 11 10 25 9 13 -2 22 0 20 5
-3 4 -1 10 5 14 5 3 10 1 10 -4 0 -6 5 -11 11 -11 6 0 8 7 5 16 -3 8 -2 13 3
9 5 -3 11 -2 14 2 2 5 2 3 1 -4 -6 -23 14 -24 22 -1 l7 22 17 -21 c13 -17 20
-19 29 -10 10 9 12 9 9 -3 -2 -8 2 -14 7 -15 6 0 16 -4 24 -9 11 -7 11 -10 0
-17 -11 -7 -10 -9 3 -9 9 0 19 5 21 10 3 6 4 5 3 -2 -2 -7 -11 -13 -22 -13
-13 0 -18 6 -16 20 2 11 1 17 -4 13 -4 -4 -13 -3 -21 3 -9 9 -13 8 -13 0 0 -6
5 -11 10 -11 6 0 10 -6 10 -14 0 -20 35 -29 59 -17 29 16 39 13 17 -4 -11 -8
-15 -15 -9 -15 13 0 39 30 27 30 -5 0 -2 5 6 10 11 7 11 10 2 10 -7 0 -10 5
-6 12 4 7 3 8 -4 4 -7 -4 -12 -1 -12 9 0 12 5 15 16 11 14 -5 15 -4 4 9 -7 8
-9 15 -4 15 5 0 0 8 -11 16 -19 15 -19 15 10 9 25 -5 27 -4 13 5 -24 15 -23
34 2 27 16 -4 18 -2 10 13 -13 25 -12 40 1 17 9 -16 12 -14 35 13 16 18 22 34
17 42 -11 19 -13 39 -2 32 5 -3 7 -10 4 -15 -4 -5 1 -9 11 -9 14 0 15 2 3 18
-7 9 -14 18 -15 20 -1 1 -9 0 -18 -4 -9 -3 -13 -11 -9 -18 4 -6 -1 -5 -10 3
-17 14 -24 26 -9 17 5 -3 9 1 9 8 0 8 -8 11 -19 8 -10 -2 -18 0 -18 6 0 6 -7
18 -17 27 -14 14 -14 18 -2 26 8 5 9 9 4 9 -6 0 -15 -4 -21 -10 -6 -6 -15 -5
-24 1 -13 9 -13 10 2 6 17 -6 28 10 21 31 -3 6 -9 12 -15 12 -6 0 -6 -6 2 -15
16 -19 3 -20 -16 -1 -12 13 -12 16 2 24 11 6 1 9 -33 10 -26 1 -43 -2 -36 -6z
m123 -112 c15 -20 17 -28 7 -24 -8 3 -17 15 -20 26 -3 11 -10 17 -16 13 -6 -3
-11 -1 -11 4 0 20 19 11 40 -19z m-306 -1 c-2 -4 2 -10 8 -12 8 -4 9 -6 2 -6
-6 -1 -17 5 -23 12 -8 10 -7 14 4 14 8 0 12 -4 9 -8z m374 -84 c-3 -3 -9 2
-12 12 -6 14 -5 15 5 6 7 -7 10 -15 7 -18z m-338 -150 c0 -8 -2 -15 -4 -15 -2
0 -6 7 -10 15 -3 8 -1 15 4 15 6 0 10 -7 10 -15z"/>
<path d="M3273 5812 c-1 -22 0 -24 9 -8 6 10 6 22 2 26 -5 5 -10 -3 -11 -18z"/>
<path d="M3670 5788 c-29 -44 -32 -53 -6 -23 22 26 32 45 23 45 -1 0 -9 -10
-17 -22z"/>
<path d="M3285 5741 c-3 -5 -2 -12 3 -15 5 -3 9 1 9 9 0 17 -3 19 -12 6z"/>
<path d="M3280 5700 c-9 -6 -10 -10 -3 -10 6 0 15 5 18 10 8 12 4 12 -15 0z"/>
<path d="M3430 5640 c0 -5 5 -10 10 -10 6 0 10 5 10 10 0 6 -4 10 -10 10 -5 0
-10 -4 -10 -10z"/>
<path d="M2533 5399 c-1 -12 1 -19 4 -15 3 3 12 1 20 -5 19 -17 16 -1 -5 21
-18 19 -18 19 -19 -1z"/>
<path d="M2511 5397 c-1 -10 -5 -16 -9 -13 -4 2 -9 -4 -9 -15 -1 -11 5 -19 15
-20 14 0 13 -2 -3 -9 -11 -5 -14 -9 -6 -9 8 -1 5 -9 -10 -22 -13 -11 -17 -17
-9 -13 27 15 38 12 32 -8 -4 -15 -7 -17 -13 -6 -7 10 -9 9 -9 -4 0 -10 3 -18
8 -18 13 0 30 -48 21 -62 -13 -20 -11 -56 4 -62 6 -3 -1 -4 -16 -1 -24 5 -27
4 -15 -9 7 -7 17 -11 22 -8 5 3 6 0 2 -6 -5 -9 -13 -9 -29 -1 l-22 10 22 -19
c19 -17 20 -21 7 -26 -9 -3 -28 -6 -42 -6 -20 0 -23 -3 -13 -9 12 -8 12 -12 2
-25 -7 -9 -17 -13 -22 -10 -5 3 -12 -2 -15 -10 -3 -9 -10 -16 -16 -16 -5 0 -6
6 -2 13 6 9 4 9 -8 -1 -11 -8 -15 -23 -11 -42 2 -18 0 -30 -6 -30 -6 0 -11 -4
-11 -9 0 -5 9 -7 20 -4 12 3 20 0 20 -6 0 -7 -4 -9 -10 -6 -5 3 -10 1 -10 -5
0 -6 -5 -8 -12 -4 -6 4 -8 3 -5 -3 8 -13 52 -9 52 4 0 6 3 14 6 17 11 11 6
-29 -5 -44 -9 -13 -9 -13 6 -2 9 8 22 11 27 8 5 -4 12 -2 16 4 3 5 15 10 26
10 11 0 17 -5 14 -10 -4 -6 -11 -7 -17 -4 -7 4 -8 2 -4 -5 6 -8 12 -9 20 -2 7
6 17 7 21 3 5 -4 5 -1 1 6 -4 6 -2 12 3 12 6 0 11 -6 11 -13 0 -8 7 -14 15
-14 11 0 12 4 4 13 -8 9 -5 11 10 7 12 -3 19 -9 16 -13 -6 -9 23 -22 34 -16 4
3 7 -6 7 -19 0 -13 -4 -21 -8 -19 -5 3 -6 10 -3 15 4 5 1 9 -4 9 -15 0 -14
-15 3 -29 7 -6 12 -25 11 -42 -2 -21 1 -29 10 -25 17 6 35 -13 28 -30 -3 -8 0
-14 6 -14 6 0 11 5 11 11 0 5 5 7 11 3 8 -5 8 -8 0 -13 -6 -4 -10 -19 -9 -33
1 -15 7 -24 12 -21 6 4 6 -1 2 -13 -6 -15 -5 -17 5 -6 10 9 10 15 1 24 -7 7
-12 16 -12 20 0 5 11 -3 25 -17 29 -28 45 -34 24 -8 -12 15 -12 16 4 10 19 -7
24 8 5 17 -7 3 -4 4 7 1 14 -3 25 3 34 18 13 20 13 21 -2 9 -12 -10 -17 -10
-23 -1 -5 8 -3 9 6 4 10 -6 12 -4 7 8 -5 14 -2 15 21 6 22 -8 25 -8 15 2 -7 7
-13 17 -13 22 0 4 6 5 13 1 8 -5 7 -2 -2 9 -8 10 -11 20 -7 24 3 4 13 -2 20
-13 10 -13 14 -15 13 -4 -2 8 -6 21 -10 27 -6 9 -3 11 9 6 14 -5 15 -3 5 15
-10 18 -9 21 4 16 8 -4 15 -11 15 -17 0 -6 3 -7 6 -4 4 4 1 15 -7 24 -7 10
-10 15 -5 11 11 -9 46 23 39 35 -4 6 -1 7 6 3 9 -6 9 -12 -3 -25 -23 -25 -20
-34 4 -14 11 10 20 24 21 33 0 10 2 11 6 3 2 -7 9 -13 14 -13 6 0 7 6 3 13 -5
8 -3 8 9 -2 9 -7 14 -17 11 -22 -3 -5 -1 -9 5 -9 5 0 9 9 8 20 -1 11 -6 20
-11 20 -5 0 -7 2 -4 5 8 9 38 -6 32 -16 -3 -5 -1 -9 5 -9 5 0 12 6 14 13 4 10
6 10 6 0 1 -7 6 -13 12 -13 5 0 8 4 4 9 -3 5 -1 12 4 15 5 4 13 1 17 -5 5 -8
3 -9 -6 -4 -8 5 -11 4 -7 -3 8 -12 32 -10 44 3 4 4 3 5 -3 2 -6 -3 -11 -1 -11
6 0 7 8 13 18 13 10 0 16 -4 13 -8 -2 -4 5 -6 16 -5 20 1 29 17 10 17 -6 0
-10 8 -8 18 2 9 -4 18 -12 18 -8 1 -22 2 -30 3 -10 1 -11 4 -4 9 17 12 24 39
9 39 -8 0 -11 -7 -7 -15 3 -10 1 -13 -6 -8 -17 10 -15 26 6 43 12 11 9 11 -10
-1 -19 -11 -29 -13 -34 -4 -5 7 -3 8 5 3 7 -4 2 11 -11 34 -12 22 -24 36 -26
31 -2 -6 -12 -10 -22 -10 -14 0 -17 8 -17 33 1 17 6 35 12 39 6 5 6 8 -2 8 -7
0 -13 4 -13 10 0 5 8 7 18 4 14 -5 14 -4 3 4 -8 6 -15 20 -16 33 -2 21 -1 21
13 3 14 -18 14 -18 7 1 -4 11 -8 25 -9 30 -1 6 -6 17 -11 25 -8 13 -7 13 8 1
9 -7 15 -17 12 -21 -3 -5 -1 -11 4 -15 6 -3 8 4 5 17 -11 46 -12 68 -4 63 5
-3 7 -12 4 -19 -7 -18 12 -30 22 -15 4 8 3 9 -4 5 -7 -4 -12 -3 -12 2 0 5 10
14 23 21 l22 11 -22 -6 c-20 -5 -22 -2 -19 30 1 20 1 36 -2 36 -8 0 -31 -28
-27 -32 3 -3 -2 -5 -10 -5 -8 0 -12 4 -10 8 3 4 -2 10 -10 13 -9 3 -18 0 -21
-7 -2 -7 -14 -14 -27 -14 -18 -2 -19 0 -7 8 13 9 13 10 0 6 -8 -2 -14 -11 -14
-20 1 -10 -4 -13 -14 -10 -9 4 -13 2 -9 -4 11 -18 -18 -36 -32 -20 -6 8 -8 17
-4 20 3 4 4 7 1 7 -3 0 -12 -8 -19 -17 -12 -14 -12 -16 0 -8 10 5 12 4 7 -4
-6 -9 -11 -9 -22 0 -12 10 -15 10 -12 -2 2 -8 8 -17 13 -21 6 -5 6 -8 -2 -8
-7 0 -16 8 -22 18 -8 14 -12 15 -23 4 -10 -10 -18 -7 -41 20 -16 18 -26 28
-23 21 4 -6 2 -14 -4 -18 -5 -3 -10 1 -10 9 0 9 -5 16 -11 16 -5 0 -7 6 -3 13
5 7 0 6 -11 -3 -17 -14 -17 -13 -10 10 7 24 6 24 -7 6 -12 -15 -17 -16 -23 -6
-5 9 -4 11 3 6 8 -5 10 -1 5 9 -4 13 -8 14 -14 4 -5 -9 -11 -10 -21 -2 -7 6
-17 11 -23 11 -5 0 -12 9 -16 19 -7 17 -8 17 -8 0z m234 -137 c3 -5 1 -10 -4
-10 -6 0 -11 5 -11 10 0 6 2 10 4 10 3 0 8 -4 11 -10z m263 -212 c10 -12 10
-18 1 -24 -7 -4 -9 -3 -5 4 3 6 2 13 -4 17 -5 3 -10 11 -10 17 0 6 1 9 3 7 1
-2 8 -11 15 -21z m-561 -139 c2 -16 -1 -19 -9 -11 -5 5 -7 15 -4 21 10 15 12
14 13 -10z m423 -29 c0 -5 -5 -10 -11 -10 -5 0 -7 5 -4 10 3 6 8 10 11 10 2 0
4 -4 4 -10z m-230 -80 c0 -5 -5 -10 -11 -10 -5 0 -7 5 -4 10 3 6 8 10 11 10 2
0 4 -4 4 -10z m16 -26 c-5 -12 -2 -15 11 -10 14 6 15 4 6 -5 -9 -9 -17 -7 -35
6 -15 11 -17 15 -5 12 9 -4 17 -2 17 3 0 6 3 10 6 10 3 0 3 -7 0 -16z"/>
<path d="M2926 5378 c3 -5 10 -6 15 -3 13 9 11 12 -6 12 -8 0 -12 -4 -9 -9z"/>
<path d="M2895 5360 c3 -5 8 -10 11 -10 2 0 4 5 4 10 0 6 -5 10 -11 10 -5 0
-7 -4 -4 -10z"/>
<path d="M2950 5359 c0 -5 5 -7 10 -4 6 3 10 8 10 11 0 2 -4 4 -10 4 -5 0 -10
-5 -10 -11z"/>
<path d="M2700 5303 c0 -19 14 -22 35 -7 10 8 14 14 8 14 -7 0 -15 -5 -19 -11
-4 -8 -9 -7 -15 2 -6 10 -9 10 -9 2z"/>
<path d="M2820 5299 c0 -5 5 -7 10 -4 6 3 10 8 10 11 0 2 -4 4 -10 4 -5 0 -10
-5 -10 -11z"/>
<path d="M2494 5215 c1 -40 2 -41 15 -17 6 12 5 23 -4 35 -11 15 -12 13 -11
-18z"/>
<path d="M2420 5039 c0 -5 5 -7 10 -4 6 3 10 8 10 11 0 2 -4 4 -10 4 -5 0 -10
-5 -10 -11z"/>
<path d="M2340 4985 c0 -5 5 -17 10 -25 5 -8 10 -10 10 -5 0 6 -5 17 -10 25
-5 8 -10 11 -10 5z"/>
<path d="M3085 4960 c-3 -6 1 -7 9 -4 18 7 21 14 7 14 -6 0 -13 -4 -16 -10z"/>
<path d="M3345 4450 c-3 -11 -11 -20 -16 -20 -6 0 -7 5 -3 12 4 6 3 8 -4 4 -6
-3 -9 -15 -7 -26 2 -10 -3 -24 -11 -30 -7 -7 -11 -17 -7 -24 4 -6 -5 -3 -19 6
-19 13 -29 15 -34 6 -4 -6 -3 -8 4 -4 6 3 13 2 16 -3 4 -5 2 -12 -4 -16 -5 -3
-10 -11 -10 -16 0 -6 6 -7 13 -3 9 6 9 5 0 -8 -7 -8 -10 -18 -6 -22 4 -4 0 -4
-9 -1 -10 4 -15 13 -11 23 4 13 3 14 -5 4 -5 -7 -7 -24 -4 -38 2 -14 0 -24 -7
-24 -7 0 -9 5 -5 12 5 7 3 8 -5 4 -7 -5 -10 -14 -7 -22 3 -8 -1 -14 -10 -14
-8 0 -12 5 -9 10 3 6 1 10 -4 10 -13 0 -13 -2 -2 -32 6 -16 4 -27 -6 -37 -13
-12 -14 -11 -8 9 5 15 4 20 -4 16 -6 -4 -11 -16 -11 -28 0 -16 -3 -18 -14 -9
-11 9 -16 9 -22 0 -4 -8 -3 -9 4 -5 7 4 12 4 13 -1 0 -4 2 -16 4 -25 3 -15 0
-16 -18 -6 -21 11 -21 10 -7 -7 9 -11 10 -16 3 -11 -8 4 -13 1 -13 -9 0 -9 -4
-13 -10 -10 -5 3 -7 0 -4 -9 6 -15 -11 -17 -33 -3 -7 5 -9 1 -6 -12 3 -10 0
-22 -6 -25 -7 -4 -8 -1 -5 8 6 15 -6 21 -30 17 -4 -1 -14 3 -21 9 -10 8 -15 8
-21 -1 -5 -8 -3 -9 6 -4 9 5 11 4 6 -3 -4 -7 -15 -8 -29 -3 -12 5 -32 5 -44 0
-13 -5 -25 -4 -28 1 -3 6 -15 6 -30 0 -18 -7 -23 -6 -19 4 7 19 -34 15 -46 -4
-9 -13 -10 -13 -11 0 -1 8 -1 19 1 25 1 5 -7 1 -18 -8 -15 -14 -21 -15 -25 -5
-3 8 -6 5 -6 -7 -1 -16 -3 -17 -10 -5 -6 8 -7 18 -5 22 3 4 -2 5 -10 2 -9 -3
-12 -13 -9 -22 4 -13 2 -12 -11 3 -10 11 -15 15 -12 8 4 -7 -1 -10 -11 -8 -10
2 -20 4 -23 4 -3 1 2 6 10 11 9 6 10 10 3 10 -6 0 -14 -4 -18 -9 -3 -6 -14 -8
-25 -6 -12 2 -18 0 -15 -6 5 -8 -7 -13 -27 -10 -3 0 -5 -7 -3 -17 1 -9 -2 -24
-8 -32 -6 -8 -7 -12 -3 -8 5 4 15 3 23 -3 11 -10 11 -15 1 -28 -12 -14 -11
-14 5 -2 12 9 14 17 7 26 -5 6 -6 16 -2 20 4 5 2 5 -4 2 -6 -3 -11 0 -11 8 0
11 4 12 14 4 7 -6 11 -15 8 -19 -3 -5 7 -18 21 -29 15 -12 21 -21 14 -21 -7 0
-10 -3 -7 -7 4 -3 2 -12 -5 -20 -6 -8 -7 -13 -2 -12 20 3 28 -2 16 -10 -11 -7
-11 -9 2 -14 8 -3 18 -1 22 5 5 7 2 8 -6 3 -9 -5 -11 -4 -6 4 12 19 27 2 16
-19 -13 -25 -12 -40 1 -17 5 9 15 17 22 17 8 0 8 -3 2 -8 -5 -4 -10 -19 -11
-34 -1 -23 2 -25 20 -18 14 5 25 3 33 -5 10 -10 9 -14 -2 -19 -8 -3 -15 -11
-15 -18 0 -9 3 -8 10 2 9 13 10 13 10 0 0 -12 2 -12 9 -2 7 11 9 10 15 -3 3
-9 10 -13 16 -10 6 3 7 -1 4 -9 -4 -9 -1 -16 6 -16 7 0 3 -9 -10 -20 -13 -11
-19 -20 -14 -20 6 0 15 5 20 10 8 8 14 7 22 -3 17 -20 -27 -70 -62 -72 -15 0
-30 3 -32 7 -3 5 -10 6 -15 3 -5 -4 -9 0 -9 7 0 10 -3 9 -9 -2 -6 -8 -8 -17
-5 -21 7 -12 -26 -32 -56 -34 -17 -2 -33 1 -36 6 -3 5 3 6 13 3 15 -5 15 -4 3
4 -16 12 -33 6 -25 -9 4 -5 1 -10 -4 -10 -40 -5 -51 -7 -53 -9 -2 -1 -16 -4
-33 -5 -16 -2 -32 -4 -35 -5 -3 -1 -8 -2 -12 -2 -3 1 -12 -6 -20 -15 -11 -14
-11 -16 2 -8 12 6 13 6 2 -6 -8 -9 -15 -10 -20 -4 -9 13 -32 18 -32 7 0 -5 -7
-17 -15 -28 -15 -18 -15 -18 -8 0 4 13 3 17 -4 13 -6 -4 -14 -1 -17 5 -3 7 -4
4 -1 -8 7 -28 -25 -57 -45 -43 -12 9 -11 10 5 4 14 -4 17 -3 9 5 -16 16 -43 2
-39 -21 2 -11 0 -17 -5 -14 -5 3 -15 -4 -23 -15 -13 -18 -15 -19 -21 -5 -4 10
-2 14 6 9 7 -4 8 -3 4 4 -10 16 -34 4 -32 -16 1 -18 -17 -22 -50 -11 -18 6
-21 4 -18 -16 1 -14 -1 -24 -4 -24 -20 3 -25 -2 -12 -11 12 -7 10 -9 -7 -8
-13 1 -19 7 -16 15 4 9 0 11 -11 7 -9 -3 -16 -14 -16 -23 -1 -14 -2 -14 -11 2
-6 9 -15 15 -20 11 -6 -3 -5 -12 3 -22 11 -13 11 -14 -1 -7 -11 6 -13 4 -7
-10 5 -15 4 -16 -9 -5 -11 9 -15 9 -15 1 0 -7 -4 -10 -9 -7 -5 3 -11 -2 -13
-12 -5 -19 -45 -27 -63 -12 -8 7 -12 5 -12 -5 0 -8 4 -12 8 -10 9 6 20 -21 12
-29 -10 -10 -35 -7 -28 3 3 5 0 13 -6 17 -7 4 -9 3 -6 -3 8 -12 -20 -53 -35
-53 -7 0 -4 6 6 13 16 12 16 13 -2 13 -20 0 -23 -11 -9 -32 10 -17 -4 -25 -21
-11 -13 10 -15 9 -9 -5 4 -12 1 -18 -9 -18 -8 0 -12 5 -9 10 3 6 4 10 1 10 -3
0 -10 -9 -16 -20 -9 -16 -8 -19 6 -13 14 5 14 3 -2 -15 -19 -23 -30 -29 -19
-12 3 6 1 10 -4 10 -6 0 -11 -5 -11 -11 0 -6 -9 -9 -20 -6 -16 4 -18 2 -10
-13 7 -13 6 -21 -4 -29 -11 -9 -15 -9 -19 1 -3 8 -6 6 -6 -5 -1 -10 -6 -15
-11 -12 -6 4 -7 11 -4 17 4 7 2 8 -5 4 -6 -4 -10 -10 -8 -14 5 -10 -30 -42
-37 -35 -3 4 -6 1 -6 -5 0 -7 5 -12 12 -12 6 0 3 -6 -8 -14 -11 -9 -23 -11
-30 -5 -7 5 -11 4 -12 -4 -2 -26 -8 -47 -17 -54 -4 -4 -5 -2 -1 5 4 6 3 12 -3
12 -6 0 -9 6 -7 13 1 6 1 9 -1 5 -3 -4 -4 -10 -3 -14 1 -3 -7 -13 -17 -21 -17
-14 -17 -14 1 -9 16 6 17 4 6 -9 -8 -10 -17 -12 -24 -6 -8 7 -12 4 -13 -10 -1
-12 3 -17 9 -13 7 4 8 2 4 -5 -6 -9 -11 -9 -22 0 -16 13 -20 -1 -4 -17 6 -6 5
-15 -1 -24 -9 -13 -10 -12 -5 2 4 13 0 17 -12 15 -21 -3 -61 -26 -46 -27 5 0
15 5 21 11 9 9 12 7 10 -8 -1 -14 -6 -19 -16 -15 -9 3 -12 1 -7 -6 3 -6 2 -13
-4 -17 -6 -4 -7 -11 -4 -17 4 -6 2 -8 -4 -4 -6 3 -16 -2 -22 -11 -9 -16 -10
-16 -8 -1 2 9 -1 17 -6 17 -5 1 -10 -11 -11 -26 0 -15 -6 -28 -13 -31 -7 -2
-9 -9 -5 -15 4 -8 1 -8 -9 1 -12 10 -18 10 -27 -2 -9 -11 -9 -16 0 -22 8 -5 9
-3 4 6 -5 9 -4 11 4 6 18 -11 1 -28 -23 -22 -20 5 -20 5 -2 -9 19 -14 19 -15
-6 -15 -21 0 -25 -4 -22 -26 2 -22 0 -23 -14 -12 -12 10 -14 10 -8 0 4 -7 1
-15 -9 -18 -13 -5 -13 -9 -3 -22 11 -13 10 -14 -10 -3 -12 6 -22 8 -21 4 4
-21 -2 -33 -13 -27 -6 4 -4 -3 5 -17 9 -13 17 -28 17 -34 -1 -5 -6 -1 -13 10
-13 22 -29 26 -44 12 -4 -5 -3 -7 2 -5 6 1 10 -1 10 -7 0 -5 -9 -9 -20 -8 -17
2 -16 0 5 -13 21 -13 22 -15 4 -11 -13 3 -21 -1 -21 -9 0 -7 3 -11 7 -9 4 2 7
-2 7 -10 0 -10 -5 -11 -18 -5 -14 8 -17 6 -14 -16 2 -17 -5 -30 -21 -41 -13
-8 -21 -19 -18 -24 3 -5 -4 -9 -16 -9 -12 0 -19 4 -16 9 3 4 -5 7 -17 7 -12
-1 -31 5 -41 13 -11 9 -16 11 -13 5 5 -8 -5 -13 -28 -16 -23 -3 -35 0 -35 8 0
6 -7 15 -16 18 -14 5 -15 4 -5 -7 9 -12 7 -14 -11 -13 -13 0 -26 5 -29 10 -4
5 -15 5 -25 1 -28 -12 -45 -14 -39 -5 3 4 -2 11 -11 14 -11 4 -15 2 -11 -6 3
-8 -4 -13 -18 -13 -13 0 -21 3 -18 8 2 4 -3 7 -12 7 -9 0 -14 -3 -11 -8 2 -4
-9 -8 -25 -8 -16 -1 -29 3 -29 8 0 5 5 6 12 2 7 -5 8 -3 3 6 -6 10 -11 10 -20
-3 -7 -10 -18 -17 -24 -17 -7 0 -9 -5 -5 -12 6 -10 5 -10 -8 -1 -8 7 -17 10
-21 7 -3 -3 -16 0 -29 7 -21 11 -22 11 -9 -4 12 -15 10 -17 -18 -13 -18 2 -29
1 -27 -2 3 -3 -2 -11 -12 -19 -12 -10 -7 -9 16 2 24 12 32 12 30 3 -2 -7 3
-12 10 -10 8 1 11 -2 7 -8 -5 -8 -11 -8 -20 0 -10 8 -19 8 -34 0 -12 -6 -21
-7 -21 -3 0 4 -8 -1 -17 -12 -13 -16 -15 -17 -10 -2 4 9 2 17 -3 17 -6 0 -10
-7 -10 -15 0 -13 -4 -14 -20 -5 -16 9 -18 8 -14 -5 4 -8 11 -15 18 -15 23 0
-55 -36 -86 -39 -4 -1 -5 -10 -3 -20 3 -14 -1 -18 -11 -14 -8 3 -14 10 -14 16
0 6 -7 2 -15 -10 -10 -15 -21 -20 -33 -16 -16 6 -16 6 1 -11 23 -24 22 -29 -7
-24 -17 4 -23 1 -19 -9 3 -7 10 -10 17 -6 6 3 -2 -9 -19 -28 -16 -19 -31 -36
-33 -39 -2 -2 -1 8 2 23 3 16 1 25 -5 22 -5 -4 -7 -11 -4 -16 4 -5 2 -9 -4 -9
-6 0 -7 -7 -4 -17 4 -11 3 -14 -5 -9 -7 4 -12 2 -12 -4 0 -6 -4 -8 -10 -5 -5
3 -10 1 -10 -5 0 -7 9 -9 23 -5 17 5 19 4 7 -4 -8 -6 -11 -11 -7 -11 4 0 3 -9
-3 -20 -7 -12 -16 -17 -27 -13 -13 5 -15 1 -11 -20 3 -18 0 -31 -11 -39 -14
-12 -14 -11 -2 5 7 9 9 17 3 17 -14 0 -23 -28 -11 -35 5 -4 3 -13 -6 -22 -14
-14 -14 -17 0 -32 8 -10 15 -22 15 -27 0 -5 -4 -2 -10 6 -5 8 -12 11 -16 7 -4
-3 -1 -14 7 -24 10 -12 11 -15 1 -9 -11 6 -13 -28 -11 -183 1 -105 6 -188 10
-185 5 3 9 0 9 -5 0 -6 -5 -11 -11 -11 -6 0 -3 -7 5 -16 19 -19 20 -24 4 -20
-7 1 -10 1 -5 -1 4 -3 5 -9 2 -14 -4 -5 2 -6 12 -2 16 6 16 5 4 -10 -9 -12
-10 -21 -3 -29 10 -13 12 -18 12 -39 0 -5 5 -7 11 -3 8 4 7 9 -2 16 -11 8 -11
9 1 5 9 -2 14 -14 14 -27 -2 -23 -1 -23 12 -5 16 22 18 16 4 -19 -6 -16 -6
-27 1 -31 5 -4 6 -11 3 -17 -4 -7 -2 -8 4 -4 7 4 12 0 13 -11 0 -11 3 -13 6
-5 3 7 -3 22 -13 33 -9 10 -12 19 -7 19 6 0 14 -7 17 -16 3 -8 10 -13 15 -9 6
3 8 -4 6 -15 -3 -14 0 -20 8 -17 7 3 11 10 9 16 -1 7 3 9 9 6 8 -5 8 -10 0
-18 -8 -8 -4 -18 12 -36 12 -13 17 -21 10 -17 -6 3 -15 1 -19 -5 -4 -7 -3 -9
4 -5 6 3 16 -2 22 -11 11 -17 11 -17 6 0 -3 9 -1 17 4 17 6 0 10 -9 10 -19 0
-15 6 -19 20 -16 11 2 18 0 15 -4 -2 -5 4 -11 14 -14 15 -3 18 -11 13 -33 -5
-29 -5 -29 14 -9 10 11 16 16 12 11 -13 -17 -9 -29 5 -17 17 14 56 -25 52 -52
-2 -9 1 -15 6 -11 5 3 9 13 9 22 0 10 8 3 17 -16 10 -22 19 -29 23 -21 5 7 18
9 36 5 25 -7 26 -6 14 11 -13 17 -13 17 5 0 11 -10 20 -25 20 -35 0 -9 5 -17
10 -17 6 0 16 -4 23 -8 7 -5 12 -3 12 7 0 23 16 28 31 8 13 -16 13 -16 -6 -2
-19 14 -19 14 -6 -3 9 -12 17 -14 26 -7 8 6 16 5 25 -3 10 -9 11 -9 6 1 -4 7
-1 12 8 12 9 0 16 -4 16 -10 0 -5 5 -10 11 -10 5 0 7 4 4 10 -4 6 1 7 11 3 13
-5 15 -3 9 8 -7 11 -6 12 6 4 17 -12 39 -13 57 -1 7 4 12 4 11 -1 -4 -22 3
-25 17 -7 8 10 13 13 9 7 -3 -7 -1 -13 4 -13 6 0 11 6 12 13 0 6 4 3 9 -8 5
-11 9 -15 9 -9 1 7 8 15 17 18 8 3 13 2 10 -3 -3 -5 1 -11 9 -15 8 -3 17 -1
20 5 4 5 11 6 17 3 6 -4 8 -2 4 4 -3 6 -2 13 4 17 5 3 10 -1 10 -9 0 -9 5 -16
12 -16 6 0 8 3 5 7 -4 3 1 12 11 20 16 14 16 14 0 9 -10 -3 -20 -2 -22 3 -5 8
8 11 42 11 9 0 29 0 45 0 29 0 34 -9 15 -29 -10 -11 -10 -13 0 -7 7 4 12 1 12
-8 0 -8 4 -18 10 -21 6 -3 7 1 4 9 -3 9 -2 16 4 16 5 0 13 -7 16 -16 4 -9 13
-14 21 -10 8 3 15 1 15 -4 0 -6 -9 -10 -20 -10 -11 0 -20 -4 -20 -9 0 -6 9 -8
19 -6 24 4 48 -20 31 -30 -8 -5 -8 -11 1 -21 9 -11 15 -11 25 -3 10 8 14 8 14
1 0 -6 -5 -14 -10 -17 -8 -5 -8 -11 0 -20 8 -9 8 -14 0 -17 -12 -4 80 -54 92
-50 4 1 5 -5 1 -13 -5 -14 -7 -13 -18 1 -9 14 -14 14 -20 4 -5 -8 -4 -11 3 -6
6 3 14 -3 17 -15 7 -20 8 -21 17 -5 15 27 41 1 27 -26 -7 -13 -7 -18 -1 -14 6
3 12 3 15 -1 2 -5 2 -2 1 5 -2 6 -2 12 0 12 7 0 38 -52 41 -69 2 -9 4 -18 5
-21 0 -3 7 3 15 14 13 18 14 17 21 -8 3 -14 10 -26 14 -26 5 0 11 -8 14 -18 4
-10 13 -19 21 -19 8 0 12 4 9 9 -3 4 0 8 5 8 6 0 11 -8 11 -18 0 -9 11 -26 25
-36 13 -10 22 -23 18 -29 -3 -6 -1 -7 5 -3 11 6 16 -5 13 -26 -1 -8 20 -5 38
6 10 7 12 3 7 -15 -3 -13 -3 -18 0 -11 5 10 9 9 19 -5 7 -10 26 -18 42 -18 18
-1 27 -5 25 -14 -2 -9 3 -11 13 -7 13 4 15 1 10 -13 -3 -11 -2 -22 3 -25 6 -3
9 2 8 11 0 9 6 18 14 20 12 4 12 3 1 -5 -9 -7 -10 -12 -2 -16 6 -4 8 -12 5
-18 -4 -7 -2 -8 4 -4 7 4 12 1 12 -6 0 -9 3 -9 10 2 8 13 14 8 12 -10 0 -3 8
-6 18 -6 10 0 17 3 15 6 -2 4 2 7 8 7 7 0 14 -9 14 -20 2 -20 19 -37 37 -37 6
0 1 6 -10 14 -16 12 -17 17 -6 28 11 11 12 10 7 -3 -8 -21 37 -43 55 -26 10
10 10 7 0 -11 -6 -13 -9 -26 -6 -30 3 -3 6 0 6 6 0 7 11 12 25 12 14 0 25 -4
25 -10 0 -5 -8 -7 -17 -4 -17 5 -17 5 0 -6 9 -6 15 -15 12 -21 -11 -16 7 -10
22 9 13 16 14 15 10 -6 -5 -20 -3 -21 10 -11 16 14 55 20 47 8 -8 -13 34 -49
51 -43 8 3 12 11 8 17 -3 5 -1 7 5 4 5 -4 8 -17 5 -30 -5 -22 -5 -22 11 -2 16
20 16 20 22 -2 3 -13 10 -20 15 -17 5 3 6 10 3 16 -4 7 -2 8 5 4 6 -4 9 -11 6
-16 -3 -5 0 -12 6 -16 7 -4 9 -3 6 3 -4 6 2 13 12 16 15 3 18 1 14 -12 -4 -13
-2 -13 10 2 9 10 18 14 21 8 3 -5 2 -11 -3 -13 -5 -1 -3 -12 6 -23 13 -16 15
-17 10 -2 -4 9 -2 17 3 17 9 0 14 -14 11 -32 0 -5 4 -8 9 -8 6 0 10 7 10 16 0
8 4 13 10 9 5 -3 6 -13 3 -23 -5 -14 -2 -13 11 3 10 11 15 15 12 9 -3 -6 7 -9
25 -8 16 1 29 -2 29 -7 0 -4 7 -6 15 -3 11 5 14 1 9 -12 -5 -18 -5 -18 9 -1
13 16 15 16 21 2 4 -11 2 -14 -6 -9 -7 4 -8 3 -4 -5 5 -7 16 -9 28 -5 15 4 18
3 13 -6 -6 -9 -4 -11 6 -4 19 12 39 14 39 4 0 -4 16 -10 35 -12 23 -3 32 0 27
7 -4 6 1 3 10 -7 16 -18 17 -18 21 4 4 22 4 22 6 -1 1 -24 1 -24 15 -5 14 19
14 19 13 -1 -1 -11 4 -20 11 -21 6 -1 13 -2 15 -4 9 -7 36 -6 31 1 -3 5 -10 7
-15 4 -15 -10 -10 2 8 16 11 10 14 10 9 2 -4 -7 -2 -13 3 -13 6 0 11 -7 11
-15 0 -13 4 -13 27 2 15 10 24 12 19 5 -6 -9 -1 -11 18 -8 16 3 25 0 23 -7 -1
-7 5 -12 13 -12 8 0 21 -4 29 -9 9 -6 12 -5 8 1 -4 6 1 19 9 29 9 10 13 13 9
7 -3 -7 -1 -21 5 -30 9 -15 11 -15 7 -2 -4 13 1 16 24 15 16 0 29 -5 29 -10 0
-4 8 -2 17 5 15 12 16 12 8 -1 -5 -9 1 -7 15 5 13 11 21 15 17 10 -3 -6 -2
-17 4 -25 7 -12 9 -12 9 3 0 10 5 15 10 12 6 -4 8 -10 6 -14 -3 -4 1 -8 8 -8
8 0 12 6 10 12 -3 6 2 12 10 12 8 0 13 -4 10 -8 -2 -4 11 -7 31 -6 19 1 35 7
35 12 0 6 4 4 9 -3 8 -13 70 -24 69 -13 -2 21 4 22 18 5 11 -13 14 -14 11 -3
-3 9 1 16 9 16 9 0 13 -6 9 -15 -5 -13 -3 -13 11 -1 19 16 54 22 54 10 0 -5 7
-12 16 -15 15 -6 15 -4 3 11 -13 15 -12 15 6 6 15 -9 22 -8 31 5 11 14 15 15
26 4 11 -11 10 -12 -4 -7 -11 4 -18 2 -18 -5 0 -6 5 -8 10 -5 6 3 10 0 10 -7
0 -8 3 -9 8 -3 9 13 42 13 62 0 13 -8 13 -6 2 8 -8 9 -17 16 -20 15 -19 -2
-32 3 -32 13 0 6 5 7 13 2 6 -4 21 -9 32 -10 10 -2 23 -9 27 -16 5 -8 8 -4 8
10 0 12 4 25 10 28 5 3 7 0 4 -8 -3 -8 0 -18 7 -23 7 -4 10 -3 5 4 -3 6 8 21
26 33 18 13 27 16 21 8 -7 -9 -10 -19 -6 -23 4 -4 0 -4 -9 -1 -13 5 -16 1 -15
-14 1 -17 4 -18 17 -8 8 7 25 12 37 11 12 0 20 3 17 7 -3 5 -2 9 3 10 4 0 16
2 26 4 9 2 17 -2 18 -8 1 -7 4 -1 8 12 6 24 7 24 26 5 16 -16 18 -17 12 -2 -3
10 -2 20 2 23 5 3 12 -2 15 -11 8 -20 29 -7 22 15 -5 12 -2 11 9 -3 14 -18 20
-15 15 9 -1 5 2 7 6 3 8 -9 36 11 29 21 -2 4 10 7 28 7 26 -1 32 -5 30 -21 -1
-11 0 -14 3 -7 3 6 10 9 16 6 5 -4 4 4 -3 17 -11 22 -11 23 4 10 11 -9 17 -10
17 -2 0 6 5 11 11 11 5 0 8 -4 4 -9 -3 -5 -1 -12 4 -15 5 -4 19 6 32 21 12 16
20 21 17 13 -4 -11 1 -16 13 -17 23 -2 34 13 18 23 -8 5 -9 3 -4 -6 5 -9 4
-11 -3 -6 -17 10 -15 29 2 23 7 -3 24 2 37 10 12 9 19 12 16 6 -11 -17 20 -23
34 -7 7 9 26 14 50 12 42 -2 59 6 34 16 -11 4 -14 2 -9 -6 4 -7 3 -8 -4 -4 -6
4 -8 14 -5 22 5 13 7 13 14 2 5 -7 9 -9 9 -4 0 5 7 3 15 -4 12 -10 16 -9 21 4
3 9 11 13 17 9 6 -4 7 -1 2 7 -6 10 -11 9 -21 -5 -12 -16 -13 -16 -11 3 1 20
22 22 50 6 9 -6 9 -5 0 7 -11 13 -9 15 10 14 24 -2 58 15 51 26 -2 4 12 6 30
4 25 -1 33 2 29 12 -4 9 3 13 22 13 16 0 24 4 19 11 -4 7 0 9 12 5 11 -3 26
-1 34 5 13 8 13 9 -2 7 -9 -2 -17 2 -17 7 0 6 7 9 15 7 9 -2 23 3 32 10 13 11
15 11 8 -2 -4 -8 2 -4 13 10 22 27 27 21 10 -13 -10 -21 -9 -21 5 -3 8 10 17
23 18 28 2 5 13 10 25 11 12 0 20 4 17 8 -2 4 -17 6 -32 3 -19 -3 -23 -2 -13
5 8 5 28 7 44 5 28 -3 29 -2 11 11 -18 14 -18 14 5 10 14 -3 29 -10 34 -17 6
-9 7 -8 4 4 -3 9 1 19 9 22 8 3 14 10 14 16 0 6 -7 4 -16 -4 -19 -20 -21 -20
-21 -1 0 8 4 12 9 9 4 -3 11 2 14 10 3 9 10 16 16 16 5 0 6 -4 3 -10 -3 -5 -1
-10 5 -10 6 0 8 -5 4 -12 -5 -7 -3 -8 5 -4 7 5 10 10 7 14 -3 3 2 11 12 19 16
14 16 14 -1 9 -11 -4 -16 -2 -11 5 3 6 16 9 29 7 13 -3 22 0 22 8 0 7 -5 10
-10 7 -6 -3 -7 -1 -3 6 6 9 11 9 23 -1 12 -10 18 -9 29 7 10 13 11 22 3 31 -7
8 -6 14 2 20 8 4 9 3 5 -5 -6 -9 0 -11 21 -7 15 2 30 5 33 6 3 1 9 2 14 1 5
-1 3 6 -5 15 -12 16 -12 17 2 12 9 -4 16 -1 16 8 0 7 -4 11 -8 8 -4 -2 -10 0
-14 5 -3 6 4 8 16 6 13 -3 26 -10 30 -16 3 -6 7 1 7 16 0 14 5 32 12 38 8 7
10 7 7 1 -3 -6 0 -11 7 -11 8 0 11 8 8 19 -2 10 -8 15 -13 12 -5 -3 -6 2 -3
11 6 14 8 14 19 -2 11 -15 15 -15 29 -4 9 7 14 17 11 21 -3 5 -1 11 5 15 6 4
8 10 5 15 -3 4 3 7 13 6 10 0 17 6 16 15 -1 12 5 15 20 12 15 -3 17 -2 8 5
-11 7 -8 11 10 16 23 6 23 6 3 23 -16 13 -17 14 -2 9 48 -17 52 -18 38 -8 -21
15 -22 41 -2 37 10 -2 24 1 32 7 11 8 10 9 -3 4 -10 -3 -18 -1 -18 4 0 6 5 10
11 10 5 0 7 4 4 10 -3 5 3 10 13 10 15 0 19 5 15 19 -4 17 11 35 30 36 4 0 7
3 7 8 0 4 11 18 25 31 l25 23 -23 11 c-22 11 -22 11 4 8 22 -4 25 -1 23 25 -1
16 2 27 7 24 4 -3 6 -13 3 -23 -4 -13 -3 -14 4 -4 5 8 8 24 6 37 -2 26 19 51
36 40 7 -4 7 2 0 19 -6 16 -6 27 1 31 5 4 7 11 3 16 -3 5 0 8 8 7 7 -2 12 2
11 9 -2 7 4 10 12 7 11 -5 13 -2 8 12 -4 10 -2 15 4 11 5 -3 10 1 10 9 0 8 -6
13 -12 10 -6 -2 -12 2 -12 9 0 7 8 12 18 10 12 -3 16 1 12 11 -3 7 -10 11 -17
7 -6 -3 0 4 12 17 17 16 20 25 12 30 -8 5 -7 9 5 14 10 3 13 11 9 18 -6 10 -4
10 8 0 13 -10 18 -10 24 -1 4 8 3 9 -4 5 -7 -4 -12 -4 -13 1 0 4 -2 16 -4 26
-2 9 1 15 6 11 5 -3 6 -11 3 -17 -4 -7 -3 -8 1 -4 16 14 14 37 -3 37 -14 0
-14 1 0 13 8 6 18 20 22 31 5 14 2 17 -11 12 -16 -5 -16 -4 -3 7 8 7 23 22 33
34 18 21 18 22 -1 41 -17 17 -18 21 -6 26 8 3 13 2 10 -2 -3 -5 1 -9 8 -9 7 0
13 6 13 13 0 7 -4 11 -9 8 -4 -3 -8 0 -8 7 0 8 -4 8 -15 -1 -13 -11 -14 -10
-9 3 3 8 12 18 20 21 8 3 12 1 9 -4 -3 -6 1 -7 9 -4 9 3 16 10 16 16 0 5 -3 7
-7 5 -5 -3 -17 -1 -28 4 -15 6 -16 8 -4 8 9 1 20 8 23 17 10 26 6 30 -9 10 -8
-11 -15 -15 -15 -10 0 15 49 59 57 51 3 -4 0 -7 -7 -7 -7 0 -10 -3 -7 -6 4 -4
14 -1 23 7 21 18 44 20 38 4 -3 -7 0 -16 7 -21 7 -4 10 -3 6 4 -10 15 3 42 20
42 9 0 11 5 7 13 -4 6 2 4 13 -6 16 -14 20 -14 20 -2 0 8 -4 12 -9 9 -4 -3 -8
0 -8 5 0 14 13 14 28 -1 9 -9 13 -7 18 5 3 9 10 17 16 17 5 0 6 -4 3 -10 -3
-5 -1 -10 4 -10 6 0 11 5 11 11 0 5 4 7 10 4 6 -3 7 1 3 10 -4 12 -8 13 -13 5
-5 -8 -10 -9 -14 -2 -3 6 3 13 14 17 12 4 17 11 13 18 -3 7 4 3 17 -8 l23 -20
-12 23 c-7 12 -8 22 -4 21 20 -3 33 2 33 15 0 7 6 19 14 25 11 10 17 8 26 -6
9 -16 10 -15 4 6 -5 18 -3 22 7 15 12 -6 12 -5 1 8 -10 12 -9 18 3 28 13 11
19 9 38 -6 18 -16 19 -16 8 -2 -7 10 -11 19 -7 19 3 1 10 2 15 3 5 0 13 5 18
9 4 5 3 7 -2 5 -10 -3 -15 4 -15 23 0 5 4 8 8 5 4 -2 9 4 9 15 2 18 0 19 -15
7 -15 -11 -15 -10 1 8 9 11 14 24 10 28 -4 4 0 4 10 0 9 -3 15 -9 12 -13 -2
-4 2 -8 9 -8 11 0 12 4 3 18 -9 14 -8 21 2 31 11 11 12 10 6 -1 -5 -9 -4 -12
3 -7 9 5 9 13 1 28 -8 16 -8 19 1 13 8 -5 11 -3 8 6 -3 8 -12 13 -19 11 -8 -1
-3 7 10 18 13 11 18 20 12 20 -6 0 -11 5 -11 11 0 5 5 7 10 4 6 -3 10 -1 10 5
0 6 4 8 10 5 6 -3 7 1 4 10 -5 11 -2 14 12 9 15 -5 16 -4 4 5 -11 7 -20 6 -35
-7 -11 -9 -14 -10 -7 -2 6 8 12 18 12 23 0 4 -6 5 -12 1 -7 -4 -4 2 6 14 17
20 15 27 -7 23 -5 -1 -6 3 -2 9 3 6 11 8 16 4 7 -4 9 6 6 25 -3 18 -1 29 4 25
5 -3 7 -9 4 -14 -3 -5 -1 -12 5 -15 8 -5 7 -11 -1 -21 -6 -8 -8 -14 -4 -14 4
0 3 -6 -3 -13 -8 -10 -6 -13 11 -14 12 -1 17 1 12 5 -12 8 -13 27 -3 38 4 4 2
14 -5 22 -10 13 -9 15 8 8 18 -7 18 -5 -2 14 -22 20 -33 47 -15 36 5 -3 8 5 7
16 -2 24 -20 35 -30 19 -3 -6 -1 -11 4 -11 6 0 11 -5 11 -11 0 -8 -5 -7 -15 1
-11 9 -13 16 -5 24 14 14 13 29 -2 20 -7 -4 -8 -3 -4 5 6 9 14 8 34 -4 l27
-16 -28 26 c-16 14 -34 23 -40 19 -7 -3 -4 1 6 9 16 13 16 15 2 21 -13 4 -14
10 -5 26 9 16 8 20 -6 20 -13 0 -11 4 7 20 13 10 18 19 12 20 -7 0 -13 -4 -13
-10 0 -5 -4 -10 -10 -10 -5 0 -8 13 -6 30 2 16 -1 27 -6 24 -5 -3 -7 -12 -4
-20 3 -8 1 -14 -4 -14 -6 0 -11 11 -11 25 -3 49 -17 75 -41 75 -15 0 -19 5
-15 20 3 11 1 23 -4 26 -5 3 -7 10 -4 15 3 5 -2 6 -11 2 -13 -5 -15 -3 -9 8 6
11 5 11 -5 2 -10 -9 -18 -8 -35 5 -20 15 -21 18 -6 29 14 11 13 12 -6 13 -13
0 -23 5 -23 10 0 6 -12 8 -27 5 -24 -5 -25 -4 -7 4 12 5 26 16 30 23 6 10 5
11 -7 1 -12 -10 -18 -10 -29 0 -9 8 -11 8 -6 0 7 -13 -19 -12 -31 2 -4 4 -3 6
2 3 6 -3 16 1 24 9 12 13 11 14 -9 8 -12 -4 -20 -3 -17 1 3 5 -9 10 -26 11
-17 1 -35 8 -41 14 -8 9 -7 10 3 4 9 -5 12 -4 7 3 -4 6 -14 8 -23 5 -12 -5
-14 -3 -8 8 7 11 5 11 -10 -1 -10 -8 -16 -10 -12 -4 6 11 -2 15 -55 29 -5 2
-9 4 -10 5 -9 8 -56 5 -51 -3 3 -6 1 -7 -5 -3 -7 4 -12 1 -12 -6 0 -9 -3 -9
-10 2 -5 8 -10 12 -10 8 0 -4 -13 -2 -30 3 -16 6 -27 15 -24 20 3 5 11 6 17 2
7 -4 6 0 -2 10 -14 18 -26 24 -17 8 6 -9 -27 -43 -40 -40 -23 4 -45 -2 -39
-11 3 -6 -1 -7 -9 -4 -10 4 -16 1 -16 -7 0 -11 -2 -11 -10 1 -10 16 -58 22
-66 8 -3 -4 -10 -5 -16 -2 -7 5 -9 2 -5 -8 5 -16 -15 -19 -29 -6 -11 12 -33
-3 -27 -18 3 -8 2 -14 -3 -13 -21 4 -25 -2 -13 -18 12 -16 12 -17 -2 -6 -9 7
-18 11 -21 8 -3 -3 -11 1 -17 9 -11 13 -9 15 11 11 22 -4 22 -3 5 10 -11 7
-25 11 -33 8 -8 -3 -14 0 -14 7 0 6 5 8 10 5 6 -3 10 1 10 10 0 9 -4 13 -10
10 -5 -3 -10 -2 -10 4 0 5 6 12 13 15 6 3 1 3 -12 0 -21 -6 -23 -3 -19 18 3
16 0 25 -8 25 -7 0 -10 -5 -7 -11 4 -6 -3 -2 -15 8 -12 11 -22 24 -22 29 0 6
7 2 15 -9 8 -10 15 -14 15 -7 0 6 -5 15 -10 18 -6 4 -8 9 -6 13 2 4 -2 15 -9
25 -11 16 -13 16 -19 2 -3 -9 -2 -13 3 -10 5 3 13 0 16 -6 5 -7 0 -10 -11 -7
-12 2 -19 12 -19 28 -1 33 -12 50 -33 50 -13 -1 -10 -5 8 -16 l25 -15 -25 7
c-32 8 -32 8 -24 28 3 9 11 13 17 9 6 -3 7 -1 3 6 -6 9 -11 9 -21 1 -12 -10
-21 4 -29 42 -4 22 -14 16 -10 -7 3 -17 1 -24 -6 -20 -5 3 -10 15 -10 26 0 10
-4 19 -10 19 -5 0 -10 7 -10 16 0 8 -5 12 -10 9 -6 -4 -8 -11 -4 -16 3 -6 -3
-5 -15 2 -13 9 -16 16 -9 20 8 5 6 17 -6 41 -11 20 -16 25 -13 11 3 -13 -1
-24 -9 -27 -9 -3 -11 0 -7 11 4 10 2 14 -4 10 -11 -7 -36 18 -46 46 -4 9 -15
17 -25 17 -11 0 -26 7 -33 17 -13 15 -12 15 8 5 12 -7 24 -12 28 -12 11 0 -19
27 -32 28 -7 1 -19 3 -27 4 -8 1 -19 12 -25 25 -6 13 -16 23 -23 22 -10 0 -10
-2 0 -6 6 -2 12 -9 12 -15 0 -6 -8 -4 -17 5 -10 8 -22 16 -28 18 -25 4 -34 12
-29 21 4 6 10 5 16 -3 8 -11 9 -11 5 1 -2 8 -9 15 -16 15 -7 0 -20 9 -28 20
-13 17 -15 17 -9 2 3 -10 2 -16 -3 -12 -5 3 -12 -1 -15 -7 -3 -7 -3 1 0 17 4
21 3 26 -4 16 -6 -8 -17 -11 -26 -8 -9 4 -16 1 -16 -5 0 -6 -3 -8 -6 -5 -4 4
-1 13 6 22 8 9 8 15 2 15 -6 0 -14 -4 -17 -10 -8 -13 -25 -13 -25 1 0 5 4 8 8
5 5 -3 9 1 9 8 0 9 -7 12 -16 8 -14 -5 -14 -4 -1 14 13 17 13 18 0 8 -28 -21
-49 -24 -43 -7 5 13 3 14 -16 3 -25 -13 -56 3 -44 24 4 6 -1 5 -10 -3 -10 -8
-20 -11 -24 -7 -3 3 0 6 8 6 8 0 4 6 -9 16 -12 8 -32 15 -45 14 -38 -3 -48 0
-41 12 5 7 3 8 -7 2 -20 -12 -40 -14 -33 -3 3 5 10 6 16 3 6 -4 8 -2 5 4 -8
12 -47 4 -47 -10 0 -5 -5 -6 -11 -2 -8 4 -7 9 2 15 7 4 10 11 6 15 -3 4 -13 2
-20 -5 -12 -9 -14 -3 -14 34 0 37 2 43 14 34 10 -9 12 -9 8 3 -3 8 2 21 11 29
10 8 15 9 11 2 -4 -6 -3 -15 3 -18 6 -4 10 -3 9 2 -4 21 2 34 13 27 7 -4 8 -3
4 4 -4 6 -12 9 -19 6 -7 -2 -14 3 -15 13 -4 43 -9 63 -17 70 -4 5 -5 2 -1 -4
4 -7 2 -13 -3 -13 -6 0 -11 5 -11 10 0 6 -4 10 -10 10 -5 0 -6 -8 -3 -17 6
-15 5 -16 -9 -3 -9 8 -13 19 -10 24 3 5 -1 6 -8 1 -8 -5 -19 -1 -28 11 -13 16
-14 17 -9 2 4 -10 2 -18 -3 -18 -6 0 -10 6 -10 13 0 8 -4 7 -10 -3 -9 -13 -10
-13 -10 0 0 13 -1 13 -11 0 -8 -12 -9 -10 -4 8 6 21 5 23 -13 13 -26 -14 -43
-14 -19 0 9 5 17 15 17 22 0 7 -4 6 -10 -3 -8 -13 -10 -13 -10 -1 0 11 -4 9
-15 -5 -13 -18 -14 -18 -8 6 5 24 5 25 -10 5 -14 -18 -16 -18 -17 -3 0 14 -4
16 -24 8 -25 -9 -36 -5 -36 14 0 6 5 4 10 -4 5 -8 10 -10 10 -5 0 6 -5 17 -10
25 -6 10 -10 11 -10 3 0 -15 -36 -17 -45 -3 -3 5 0 7 8 4 8 -3 20 3 28 13 13
16 12 17 -3 5 -10 -8 -23 -10 -30 -6 -7 5 -22 10 -33 11 -16 2 -17 1 -5 -6 8
-5 18 -7 24 -4 5 3 6 1 3 -5 -8 -12 -67 6 -67 21 0 4 4 6 9 2 5 -3 12 -1 15 4
7 11 -13 9 -31 -2 -16 -10 -16 -2 -3 23 7 13 6 21 -4 29 -9 8 -13 7 -13 -4 0
-8 5 -11 10 -8 6 3 7 1 3 -6 -11 -17 -25 -4 -21 19 2 11 0 22 -6 25 -5 4 -9
11 -9 18 0 6 7 2 15 -9 8 -10 15 -14 15 -7 0 6 -7 18 -15 27 -14 13 -13 16 2
25 12 7 13 10 4 11 -7 0 -11 6 -7 15 3 8 2 14 -2 13 -4 -2 -17 6 -28 16 -16
14 -21 27 -17 48 3 21 -1 34 -14 45 -10 8 -13 12 -7 9 7 -3 14 1 17 8 3 8 1
17 -6 20 -9 3 -8 7 3 15 11 8 7 10 -18 6 -19 -2 -30 0 -26 6 3 5 10 7 15 4 5
-4 16 -2 25 3 14 8 14 10 -1 22 -13 11 -15 10 -9 -4 3 -9 3 -16 0 -16 -4 0
-11 12 -16 26 -6 15 -14 22 -22 18 -7 -4 -8 -3 -4 5 4 6 11 9 15 7 10 -6 8 25
-3 42 -4 6 -13 12 -19 12 -7 0 -6 -4 3 -10 8 -5 10 -10 4 -10 -6 0 -17 7 -24
15 -17 20 -27 19 -35 -5z m21 -17 c-10 -10 -19 5 -10 18 6 11 8 11 12 0 2 -7
1 -15 -2 -18z m49 -3 c-3 -5 -12 -10 -18 -10 -7 0 -6 4 3 10 19 12 23 12 15 0z
m80 -280 c-3 -5 1 -10 7 -13 7 -3 4 -5 -7 -4 -15 1 -21 8 -21 24 0 17 3 20 13
11 7 -5 11 -14 8 -18z m-879 -69 c-9 -8 -18 -12 -22 -9 -9 10 3 25 21 25 14 0
14 -2 1 -16z m194 9 c0 -5 -2 -10 -4 -10 -3 0 -8 5 -11 10 -3 6 -1 10 4 10 6
0 11 -4 11 -10z m-120 -210 c0 -5 -5 -10 -11 -10 -5 0 -7 5 -4 10 3 6 8 10 11
10 2 0 4 -4 4 -10z m1233 -175 c-7 -21 -12 -19 -10 4 0 11 5 18 9 15 4 -3 5
-11 1 -19z m-1227 -37 c3 -4 13 -4 22 -1 10 4 14 3 11 -1 -4 -4 -17 -9 -29
-11 -13 -3 -27 -10 -31 -16 -4 -7 -6 -1 -6 13 2 23 17 31 33 16z m1227 -3 c-3
-9 -8 -14 -10 -11 -3 3 -2 9 2 15 9 16 15 13 8 -4z m-1476 -69 c0 -15 -21 -16
-34 -1 -4 4 -3 5 4 1 6 -3 14 -2 18 4 8 14 12 13 12 -4z m1324 -22 c4 -2 10 0
14 6 3 5 12 10 18 10 7 0 6 -4 -3 -11 -12 -9 -10 -10 8 -6 18 4 21 3 12 -8 -8
-10 -8 -15 1 -21 7 -4 10 -3 7 2 -3 5 1 15 10 23 13 13 14 11 9 -15 -3 -16 -4
-23 -1 -16 3 6 11 9 16 6 6 -4 8 -2 5 3 -4 6 0 16 8 23 12 10 13 8 10 -9 -2
-12 -6 -25 -10 -30 -3 -5 0 -13 6 -17 7 -4 9 -3 6 3 -4 6 0 16 8 23 11 9 15 9
15 1 0 -7 5 -9 12 -5 7 4 8 3 4 -5 -4 -6 -13 -8 -19 -5 -9 5 -8 3 0 -6 10 -11
16 -10 32 4 16 15 20 15 28 3 10 -18 50 -39 56 -29 2 4 2 1 0 -6 -1 -8 5 -21
14 -30 16 -16 16 -15 10 8 -6 23 -4 22 23 -9 17 -19 33 -31 37 -27 4 3 -2 12
-12 19 -15 12 -15 14 -1 14 17 0 31 -31 21 -47 -3 -5 -1 -10 4 -10 6 0 11 4
11 8 0 16 30 9 47 -12 17 -20 17 -20 0 -7 -15 12 -17 12 -11 -3 4 -11 13 -14
32 -9 14 3 23 2 19 -3 -3 -5 1 -17 8 -27 13 -18 14 -18 24 0 7 11 11 13 11 4
0 -8 6 -11 16 -7 14 6 15 4 4 -9 -11 -13 -15 -13 -21 -3 -5 7 -9 8 -9 2 0 -19
12 -24 33 -13 11 7 17 7 13 1 -9 -15 19 -33 40 -26 16 5 16 4 4 -5 -8 -6 -24
-8 -35 -5 -16 4 -17 3 -5 -5 8 -6 22 -8 31 -5 10 2 19 -2 23 -12 4 -9 13 -14
21 -10 8 3 15 1 15 -4 0 -6 -4 -10 -10 -10 -5 0 -10 -8 -9 -17 0 -11 3 -13 6
-5 6 15 33 16 33 1 0 -6 6 -9 13 -6 8 3 14 -4 15 -16 1 -17 -1 -19 -8 -7 -5 8
-10 10 -10 4 0 -7 12 -20 28 -30 21 -14 24 -14 14 -2 -10 13 -10 18 -1 24 8 4
9 3 5 -5 -4 -7 2 -15 16 -20 13 -6 16 -10 8 -11 -13 0 -13 -1 0 -11 12 -9 11
-10 -8 -6 -13 3 -20 1 -16 -5 4 -5 17 -8 30 -5 27 5 41 -7 23 -19 -8 -5 -9 -3
-4 6 5 9 4 11 -4 6 -20 -13 -1 -27 21 -15 11 6 18 7 14 1 -3 -5 1 -15 10 -22
8 -7 13 -19 10 -26 -3 -7 -1 -16 5 -19 5 -4 6 -12 3 -18 -4 -7 -3 -8 1 -4 13
11 15 38 3 31 -7 -4 -8 -2 -4 5 12 18 25 3 20 -23 -5 -27 18 -51 41 -42 13 5
13 3 0 -18 -13 -20 -13 -23 0 -23 8 0 12 4 9 8 -2 4 0 10 5 13 5 4 8 -5 6 -19
-1 -14 2 -28 7 -31 6 -4 5 -10 -3 -16 -11 -8 -10 -9 2 -5 9 3 22 0 28 -6 8 -8
11 -7 11 4 1 27 25 -25 26 -55 0 -17 6 -31 15 -34 11 -3 11 -2 -1 7 -8 6 -10
11 -4 11 12 0 32 -19 33 -32 1 -5 1 -17 1 -28 0 -11 5 -20 11 -20 5 0 7 5 3
12 -5 7 -3 8 5 4 9 -6 9 -12 -3 -25 -18 -20 -5 -41 26 -41 19 0 24 -15 8 -25
-6 -4 -5 -14 3 -28 8 -12 13 -29 12 -37 -1 -23 17 -30 39 -14 24 17 36 18 36
3 0 -5 -6 -7 -12 -3 -7 4 -10 3 -6 -1 5 -5 19 -10 33 -11 22 -2 23 -1 10 12
-17 18 -20 28 -4 19 5 -4 21 -8 35 -10 18 -2 24 2 20 11 -3 7 0 16 6 20 6 4 9
3 6 -2 -3 -5 0 -15 8 -21 11 -11 12 -8 9 16 -3 23 0 28 12 24 12 -5 12 -7 1
-14 -9 -6 -9 -9 -1 -9 17 0 28 21 15 29 -6 3 11 7 39 8 35 1 47 -2 42 -10 -4
-7 1 -6 10 2 11 9 35 12 72 9 51 -4 56 -3 52 14 -3 10 -1 16 4 12 5 -3 9 -12
9 -20 0 -8 5 -14 11 -14 5 0 8 4 5 8 -3 5 1 9 8 9 8 0 12 -7 9 -15 -5 -12 -2
-12 15 -3 26 14 35 14 27 1 -3 -5 3 -10 14 -10 10 0 22 -6 25 -12 3 -7 4 -2 1
12 -3 14 -2 20 1 13 3 -7 13 -9 22 -6 14 4 15 3 2 -6 -18 -12 -12 -19 21 -25
13 -2 23 -9 21 -16 -2 -7 3 -10 12 -7 9 4 18 1 22 -5 4 -7 3 -8 -4 -4 -7 4
-12 2 -12 -4 0 -6 -4 -8 -10 -5 -5 3 -10 2 -10 -4 0 -5 8 -10 18 -10 38 -1 51
-5 46 -12 -2 -4 -13 -6 -24 -4 -12 2 -18 0 -15 -5 3 -5 17 -7 30 -4 14 2 25 0
25 -6 0 -5 -7 -10 -15 -10 -8 0 -15 -4 -15 -9 0 -5 8 -8 18 -7 12 1 16 -5 15
-22 -2 -13 1 -21 7 -17 6 3 10 2 10 -4 0 -5 -6 -12 -12 -15 -7 -3 -3 -3 10 0
17 4 22 1 22 -14 0 -11 -6 -23 -12 -26 -7 -3 -3 -3 9 0 16 3 21 1 19 -11 -1
-9 -8 -20 -15 -24 -10 -6 -9 -10 3 -14 10 -4 16 -18 16 -37 0 -21 -4 -29 -12
-24 -7 4 -8 3 -4 -4 4 -6 8 -35 10 -63 3 -31 1 -47 -4 -38 -5 7 -12 10 -16 6
-4 -3 -1 -14 7 -23 13 -16 12 -16 -11 -4 -23 12 -24 12 -11 -4 12 -14 12 -16
-1 -11 -8 3 -21 -2 -29 -12 -13 -16 -12 -17 3 -5 12 10 18 10 24 1 4 -7 3 -9
-3 -6 -15 9 -66 -40 -57 -55 4 -7 3 -8 -5 -4 -6 4 -8 13 -4 19 5 8 2 8 -9 0
-8 -7 -17 -11 -20 -8 -3 3 -13 -3 -22 -14 -13 -14 -14 -21 -5 -27 8 -4 10 -3
5 4 -5 8 -2 10 9 6 9 -4 15 -7 13 -8 -2 -1 -12 -8 -22 -16 -13 -10 -17 -10
-12 -2 4 6 3 12 -3 12 -5 0 -13 -5 -16 -10 -5 -8 -11 -8 -20 0 -10 8 -15 8
-20 -1 -6 -8 -9 -8 -15 1 -5 8 -9 8 -13 -3 -6 -16 9 -17 31 -4 6 5 12 4 12 -1
0 -13 -18 -19 -55 -18 -21 1 -29 5 -27 16 3 12 1 12 -9 3 -9 -9 -8 -15 5 -28
9 -9 16 -22 16 -28 0 -7 -4 -6 -10 3 -5 8 -10 11 -10 6 0 -5 -7 -2 -16 5 -15
12 -16 11 -11 -11 4 -14 4 -20 1 -13 -6 13 -52 7 -73 -10 -12 -9 -13 -9 -7 1
9 15 -6 16 -22 0 -7 -7 -12 -8 -12 -2 0 6 5 15 10 20 7 7 6 11 -4 11 -8 0 -14
-5 -13 -11 1 -6 -4 -10 -11 -8 -8 1 -11 -2 -8 -7 4 -5 -2 -14 -11 -20 -10 -6
-12 -11 -5 -11 6 0 12 -7 12 -16 0 -9 5 -12 12 -8 7 4 8 3 4 -5 -4 -6 -12 -8
-18 -5 -8 5 -9 1 -4 -11 4 -10 0 -28 -9 -41 -9 -13 -13 -24 -10 -24 3 0 8 0
13 0 4 0 7 4 7 9 0 5 4 13 9 18 5 5 6 3 2 -4 -4 -8 -2 -13 6 -14 10 0 10 -2 1
-6 -7 -2 -13 -14 -13 -24 0 -11 5 -17 10 -14 16 10 11 -1 -7 -16 -14 -12 -15
-12 -9 -1 7 11 4 12 -13 3 -24 -13 -28 -23 -6 -15 12 5 14 2 8 -12 -6 -17 -5
-17 10 -5 10 8 20 11 24 7 3 -3 2 -6 -4 -6 -6 0 -14 -16 -17 -35 -4 -20 -11
-33 -15 -30 -5 2 -15 -3 -22 -12 -8 -10 -9 -14 -2 -10 14 9 30 -12 16 -22 -14
-10 -10 -56 5 -53 8 1 11 -2 7 -8 -3 -6 -10 -8 -14 -6 -4 3 -8 -10 -8 -29 0
-19 4 -32 9 -29 4 3 8 0 8 -5 0 -6 -9 -11 -21 -11 -11 0 -17 -5 -14 -10 4 -6
10 -8 15 -5 5 3 12 0 16 -6 4 -8 3 -9 -4 -5 -12 7 -14 -6 -15 -72 0 -15 -5
-21 -16 -20 -8 2 -16 -3 -16 -10 0 -7 -6 -17 -14 -21 -11 -7 -8 -10 9 -16 20
-6 21 -9 8 -16 -10 -5 -15 -19 -14 -34 2 -14 -1 -22 -7 -18 -6 4 -8 -2 -4 -16
4 -17 2 -20 -7 -12 -9 8 -13 7 -13 -2 0 -6 -4 -20 -8 -30 -6 -14 -3 -16 11
-11 11 3 1 -6 -21 -21 -28 -19 -33 -25 -17 -22 19 4 21 3 12 -8 -7 -8 -17 -13
-22 -12 -6 1 -12 -13 -14 -31 -2 -22 1 -30 9 -26 7 4 8 3 4 -2 -9 -9 -13 -10
-42 -13 -8 0 -15 -6 -15 -12 0 -5 4 -8 9 -4 5 3 13 0 17 -6 5 -8 3 -9 -6 -4
-10 6 -12 4 -6 -10 5 -15 4 -16 -9 -5 -9 7 -18 10 -22 6 -3 -3 -1 -6 6 -6 7 0
9 -5 6 -10 -4 -6 -11 -7 -17 -4 -6 4 -6 -1 1 -14 8 -15 7 -23 -4 -32 -7 -6
-11 -19 -8 -28 4 -14 3 -15 -5 -2 -7 9 -7 19 -2 25 7 8 5 12 -5 12 -8 0 -12
-4 -9 -8 2 -4 0 -11 -6 -14 -8 -5 -8 -11 0 -20 7 -9 6 -16 -4 -24 -11 -9 -16
-9 -22 0 -5 8 -3 10 7 4 8 -5 11 -5 7 -1 -8 9 -18 9 -19 -1 -3 -21 -21 -43
-31 -37 -6 4 -8 3 -5 -3 4 -6 0 -14 -8 -17 -8 -3 -14 -11 -13 -17 2 -6 -3 -14
-11 -17 -9 -3 -11 0 -6 8 5 8 4 11 -2 7 -6 -4 -8 -18 -5 -32 2 -14 0 -25 -7
-25 -5 0 -8 7 -5 15 4 8 1 15 -5 15 -6 0 -10 -6 -9 -13 2 -6 -3 -11 -11 -9
-12 3 -12 0 -1 -12 15 -19 24 -21 14 -4 -4 7 -3 8 5 4 19 -12 3 -24 -30 -22
l-31 2 23 -17 23 -17 -26 5 c-15 3 -29 0 -33 -8 -5 -7 -4 -10 1 -6 5 3 10 -3
10 -13 0 -18 -19 -21 -33 -5 -4 4 -2 5 6 0 10 -5 12 -4 7 4 -4 6 -12 9 -17 5
-5 -3 -7 -10 -4 -15 4 -5 1 -9 -5 -9 -6 0 -8 -5 -4 -12 5 -9 3 -9 -9 1 -9 7
-14 18 -10 24 3 6 1 7 -5 3 -9 -5 -7 -14 4 -31 14 -22 14 -24 -3 -32 -10 -5
-28 -8 -40 -7 -13 0 -24 -4 -24 -10 -1 -6 -2 -15 -4 -21 -1 -5 -3 -14 -4 -20
-1 -5 -9 -1 -17 10 -16 20 -16 20 -9 -2 5 -19 3 -22 -11 -16 -10 4 -15 2 -11
-3 3 -6 1 -16 -5 -24 -8 -12 -9 -12 -4 3 3 9 1 17 -4 17 -6 0 -10 -9 -10 -20
0 -18 -10 -24 -32 -22 -3 1 -11 -5 -18 -13 -8 -10 -17 -12 -29 -5 -11 5 -23 5
-32 -2 -11 -8 -11 -9 3 -4 10 3 20 1 23 -4 4 -6 -1 -10 -9 -10 -8 0 -18 -4
-21 -10 -4 -6 1 -7 12 -4 15 5 15 4 3 -4 -8 -6 -17 -9 -21 -6 -4 2 -10 0 -13
-5 -3 -5 -15 -7 -26 -4 -11 3 -17 10 -13 16 4 6 1 7 -7 2 -10 -6 -10 -10 2
-19 14 -10 14 -13 0 -26 -14 -13 -15 -12 -9 3 3 9 2 17 -3 17 -6 0 -10 -4 -10
-10 0 -5 -6 -7 -13 -4 -14 5 -57 -31 -57 -49 -1 -7 -7 -1 -15 13 -8 14 -14 19
-15 11 0 -10 -3 -11 -14 -2 -10 8 -16 9 -21 1 -4 -6 -1 -9 6 -8 6 2 14 -3 17
-11 2 -8 0 -11 -6 -8 -5 4 -16 -1 -23 -11 -13 -15 -12 -16 4 -3 9 7 17 9 17 3
0 -15 -26 -22 -39 -9 -8 8 -11 6 -11 -7 0 -16 -1 -16 -16 -2 -19 20 -31 21
-15 2 8 -9 8 -16 2 -20 -5 -4 -14 2 -20 11 -10 17 -10 17 -11 -1 0 -15 -3 -16
-15 -6 -13 11 -14 10 -9 -5 6 -15 3 -17 -20 -13 -14 3 -29 1 -33 -5 -3 -5 -1
-7 4 -4 6 4 13 0 16 -8 4 -9 1 -12 -9 -8 -8 3 -22 -1 -31 -8 -9 -8 -14 -9 -10
-3 4 7 0 15 -9 18 -8 3 -12 2 -9 -3 3 -5 1 -12 -5 -16 -5 -3 -10 -1 -10 4 0 6
-5 11 -11 11 -5 0 -8 -4 -5 -9 3 -5 -1 -12 -10 -15 -10 -4 -13 -2 -8 6 5 8 2
9 -9 5 -10 -4 -17 -1 -18 6 0 8 -2 9 -5 1 -3 -7 -15 -10 -27 -8 -21 4 -21 4
-2 -5 11 -4 23 -7 26 -5 4 2 10 -3 13 -12 3 -8 11 -12 17 -8 8 4 9 3 5 -5 -6
-8 -12 -8 -26 2 -21 14 -90 11 -90 -5 0 -5 4 -7 8 -4 5 3 9 -2 9 -11 0 -12 -5
-11 -19 7 -16 19 -22 19 -20 -1 1 -7 -37 -4 -67 6 -13 4 -21 2 -21 -5 0 -6 4
-9 9 -5 5 3 12 2 15 -3 10 -16 -29 -9 -41 7 -10 13 -11 11 -8 -14 4 -28 4 -28
-7 -7 -6 12 -15 22 -20 22 -5 0 -6 -5 -2 -11 5 -8 -1 -10 -20 -7 -14 3 -26 1
-26 -3 0 -5 5 -9 12 -9 6 0 3 -6 -8 -14 -13 -10 -23 -11 -31 -4 -9 7 -13 7
-13 -1 0 -8 -4 -8 -14 1 -8 7 -11 17 -8 22 3 5 -1 5 -9 0 -8 -5 -18 -9 -23 -9
-5 0 -11 -7 -13 -15 -4 -13 -3 -13 6 0 6 8 11 10 11 4 0 -23 -15 -24 -32 -2
-11 13 -16 16 -12 7 7 -22 -14 -35 -22 -14 -5 13 -9 14 -15 3 -4 -7 -22 -13
-38 -14 -17 -1 -28 2 -26 7 3 4 1 10 -5 14 -5 3 -10 -1 -10 -10 0 -9 -5 -13
-10 -10 -6 4 -18 1 -27 -7 -12 -9 -15 -9 -9 0 5 8 1 12 -11 12 -11 0 -24 5
-29 10 -7 7 -11 6 -11 -4 0 -8 5 -12 11 -9 6 3 8 2 3 -2 -13 -15 -68 -13 -63
1 3 8 0 16 -6 20 -7 5 -8 2 -3 -6 6 -10 4 -12 -10 -6 -14 5 -15 3 -7 -6 8 -10
4 -13 -14 -14 -13 -1 -24 2 -24 8 0 5 4 7 8 4 5 -3 9 1 9 9 0 11 -4 12 -13 4
-7 -5 -25 -8 -41 -6 -15 2 -40 0 -55 -4 -23 -6 -28 -4 -29 9 0 14 -2 13 -9 -3
-5 -11 -9 -14 -9 -7 -1 8 -6 10 -13 5 -22 -13 -37 -12 -31 2 3 10 -2 13 -22 9
-16 -3 -24 -1 -21 5 4 5 2 12 -3 16 -6 3 -8 -3 -6 -15 2 -11 0 -20 -6 -20 -5
0 -9 3 -9 8 0 4 -9 13 -21 20 -12 8 -19 10 -16 5 3 -5 -3 -14 -13 -21 -14 -9
-21 -8 -31 4 -7 8 -18 13 -26 10 -8 -3 -12 -2 -10 2 6 9 -19 33 -27 25 -3 -3
0 -13 7 -22 11 -14 10 -14 -5 -2 -10 7 -16 16 -14 20 3 4 -4 12 -15 19 -10 7
-19 8 -19 3 0 -12 -18 -9 -49 8 -17 9 -21 10 -16 1 5 -9 1 -10 -15 -5 -16 5
-20 4 -15 -5 5 -8 0 -7 -14 2 -14 8 -19 20 -16 35 2 13 0 21 -6 18 -5 -4 -7
-11 -4 -16 4 -5 -1 -9 -10 -9 -9 0 -14 4 -11 9 4 5 -3 7 -15 4 -16 -4 -17 -8
-7 -14 8 -5 9 -9 2 -9 -6 0 -18 8 -25 17 -8 9 -9 14 -3 10 6 -3 20 0 30 9 18
15 18 15 -2 5 -14 -7 -24 -7 -31 0 -8 8 -13 7 -18 -2 -6 -8 -4 -10 5 -4 8 5
11 4 6 -3 -10 -17 -38 -2 -31 16 3 9 3 13 -1 10 -3 -4 -15 3 -26 15 -11 12
-18 18 -15 12 2 -5 -4 -19 -15 -30 -18 -19 -19 -19 -12 -1 5 13 4 17 -3 13 -7
-5 -9 0 -6 14 5 18 3 20 -14 15 -14 -5 -22 0 -30 16 -8 19 -10 20 -16 4 -4 -9
-3 -15 2 -12 5 3 11 -1 15 -9 3 -8 0 -17 -6 -21 -7 -5 -8 -2 -3 6 6 10 4 12
-8 7 -9 -3 -16 -3 -16 1 6 36 -2 49 -27 44 -19 -3 -25 -1 -20 7 5 8 0 10 -18
7 -18 -3 -24 -1 -20 6 5 7 1 9 -9 5 -9 -3 -16 -3 -16 1 1 4 -2 18 -6 30 -6 18
-10 20 -16 10 -7 -10 -9 -9 -9 5 0 18 -20 19 -32 2 -5 -6 -8 -6 -8 2 0 7 7 16
16 21 11 6 13 11 5 16 -6 4 -11 2 -11 -3 0 -15 -27 -14 -36 1 -4 6 -3 8 4 4 6
-3 14 -1 18 5 4 8 3 9 -4 5 -7 -4 -12 -2 -12 5 0 8 -5 7 -17 -2 -11 -10 -14
-10 -9 -1 4 6 3 12 -1 12 -5 0 -15 -6 -22 -12 -9 -9 -12 -9 -7 -1 3 6 3 13 -1
16 -5 2 -2 2 5 1 6 -2 12 1 12 6 0 6 -4 11 -10 11 -5 1 -14 3 -20 4 -5 1 -14
3 -20 4 -5 0 -10 6 -10 12 0 8 5 7 15 -1 13 -11 14 -10 10 3 -4 8 -15 17 -26
20 -13 3 -17 1 -12 -6 4 -7 -1 -6 -10 2 -9 7 -17 20 -17 27 0 8 -6 14 -12 14
-9 0 -8 4 2 10 11 7 6 8 -18 5 -19 -2 -30 0 -26 6 3 5 9 7 14 4 5 -3 12 -1 15
5 4 6 3 10 -2 9 -21 -4 -31 3 -36 22 -5 17 -9 19 -26 9 -14 -7 -21 -7 -21 0 0
5 4 10 9 10 5 0 11 6 14 13 3 8 -1 14 -9 14 -7 0 -11 -3 -9 -7 2 -3 -5 -6 -15
-6 -14 0 -16 4 -9 12 7 9 4 14 -10 19 -11 3 -18 12 -15 20 3 7 0 16 -5 20 -6
3 -9 11 -6 16 4 5 1 9 -4 9 -15 0 -14 -13 2 -29 10 -10 9 -11 -5 -6 -9 4 -21
20 -27 37 -6 16 -15 27 -21 23 -5 -3 -13 2 -17 12 -4 10 -15 24 -25 31 -18 13
-15 38 3 26 5 -3 7 -10 4 -15 -4 -5 -1 -9 4 -9 6 0 11 4 11 9 0 13 -28 33 -38
28 -4 -3 -14 -1 -22 5 -12 8 -12 9 3 4 22 -7 22 3 0 20 -17 13 -17 14 2 8 18
-5 18 -5 2 6 -9 6 -14 16 -11 22 4 7 2 8 -5 4 -6 -4 -9 -11 -7 -15 3 -4 0 -13
-5 -21 -6 -11 -8 -5 -4 19 5 27 3 32 -9 28 -11 -4 -13 0 -10 19 3 16 1 23 -6
19 -5 -3 -10 -14 -11 -23 0 -14 -2 -14 -6 -2 -3 8 -11 19 -17 23 -7 6 -4 7 7
3 11 -3 17 0 17 10 0 8 -5 12 -10 9 -6 -3 -10 -1 -10 5 0 6 -6 8 -12 4 -7 -4
-10 -4 -6 1 13 14 -11 45 -29 38 -11 -4 -14 -3 -9 6 5 7 14 10 21 7 9 -3 13 2
12 14 -1 12 -5 16 -12 10 -6 -5 -17 -5 -25 2 -12 8 -12 9 3 4 22 -7 22 3 0 19
-13 9 -13 14 -3 20 9 6 11 4 5 -5 -5 -9 -4 -11 3 -6 9 5 8 12 -1 26 -12 21
-27 26 -27 11 0 -5 6 -12 13 -14 9 -4 9 -6 0 -6 -22 -2 -26 22 -7 37 19 14 18
15 -1 8 -11 -4 -22 -8 -25 -9 -3 -1 -5 3 -5 8 0 6 2 9 5 8 3 -1 7 7 7 18 1 13
-5 19 -20 20 -17 1 -18 2 -4 6 9 2 15 8 12 13 -3 5 -13 6 -23 3 -15 -6 -15 -5
-3 10 9 11 10 17 2 17 -6 0 -11 4 -11 10 0 5 8 7 18 4 16 -5 16 -5 -1 6 -9 6
-14 16 -11 22 4 7 2 8 -5 4 -6 -4 -9 -11 -6 -16 3 -5 1 -11 -5 -15 -5 -3 -10
-2 -10 4 0 5 -15 20 -32 32 -18 13 -27 16 -21 8 13 -16 8 -29 -9 -29 -5 0 -6
5 -2 12 4 7 3 8 -4 4 -7 -4 -12 -15 -12 -24 0 -13 -2 -13 -16 4 -8 10 -13 14
-11 9 7 -15 -18 -46 -34 -43 -8 2 -13 -1 -12 -7 1 -5 -19 -11 -43 -12 -25 -1
-43 1 -40 5 2 4 -7 8 -20 8 -13 1 -24 -2 -24 -8 0 -5 4 -7 9 -3 5 3 12 1 15
-4 4 -5 -2 -8 -11 -7 -10 2 -22 -2 -26 -8 -6 -7 -7 -4 -3 7 3 11 2 16 -4 12
-6 -3 -10 0 -11 7 0 10 -2 10 -6 0 -2 -6 -10 -9 -15 -6 -7 4 -8 2 -4 -4 4 -7
2 -12 -3 -12 -6 0 -11 6 -11 13 0 9 -2 9 -9 -1 -11 -18 -12 -18 -38 -3 -18 9
-22 9 -17 -2 3 -8 -2 -20 -11 -27 -8 -7 -15 -9 -15 -4 0 5 -5 2 -11 -6 -9 -13
-10 -13 -6 0 2 8 10 14 16 12 7 -1 9 2 5 9 -5 8 -3 9 6 4 9 -6 11 -4 5 4 -5 9
-10 10 -18 2 -16 -16 -25 -14 -30 7 -3 12 -5 11 -6 -6 0 -13 -5 -20 -11 -17
-6 4 -7 11 -4 17 5 7 2 8 -7 2 -21 -13 -39 -14 -39 -2 0 6 7 8 14 5 10 -4 13
-1 9 8 -4 11 -10 12 -24 4 -13 -6 -19 -6 -19 0 0 6 -7 8 -15 5 -11 -5 -13 -2
-9 10 3 9 1 16 -5 16 -6 0 -11 -6 -11 -14 0 -8 -5 -18 -12 -22 -7 -4 -8 -3 -4
4 4 6 -2 17 -14 24 -11 7 -20 17 -20 22 0 5 9 1 20 -9 25 -22 26 -15 3 11 -10
11 -26 20 -35 21 -10 0 -22 1 -26 2 -10 1 -9 31 2 49 4 7 4 12 -1 11 -4 -1
-14 -1 -22 0 -11 1 -11 4 0 19 12 15 12 16 -2 5 -9 -7 -19 -9 -24 -5 -4 4 -2
-3 6 -15 7 -12 16 -20 19 -18 4 2 7 -3 7 -12 0 -12 -7 -9 -23 11 -13 14 -21
33 -18 41 4 10 0 15 -12 16 -17 1 -17 2 -1 6 9 2 17 9 17 15 0 5 -7 8 -14 5
-10 -4 -13 -1 -10 7 3 7 -2 18 -10 25 -22 18 -9 44 15 30 28 -15 23 -4 -7 16
-15 9 -24 13 -20 7 3 -5 -2 -16 -12 -23 -15 -13 -16 -12 -4 3 8 10 9 18 3 22
-6 4 -7 14 -4 23 5 12 3 14 -7 8 -9 -5 -11 -4 -6 3 4 7 15 12 24 12 15 0 15 2
2 10 -18 11 -20 30 -7 48 7 9 6 11 -5 7 -11 -5 -14 4 -14 39 1 35 4 42 14 34
9 -8 11 -7 6 6 -3 9 -9 16 -13 16 -4 0 -8 7 -8 15 0 13 4 12 21 -2 13 -12 17
-13 10 -3 -7 8 -10 26 -9 40 1 14 -5 34 -14 44 -15 18 -15 18 7 7 21 -11 22
-11 10 8 -6 11 -17 17 -23 13 -5 -3 -4 2 4 11 11 14 11 20 0 35 -13 16 -13 16
5 2 18 -14 19 -13 13 2 -3 10 -2 20 4 24 18 11 21 -4 5 -33 -12 -25 -13 -30
-1 -30 8 0 12 4 10 8 -7 11 6 40 15 34 5 -3 12 0 16 6 5 8 3 9 -6 4 -10 -6
-12 -3 -8 13 4 12 2 20 -3 16 -5 -3 -9 0 -9 5 0 6 7 11 15 11 8 0 15 5 15 11
0 5 5 7 12 3 7 -4 8 -3 4 4 -5 9 -13 9 -29 1 -20 -9 -21 -9 -4 4 13 11 14 16
6 19 -9 3 -7 7 5 11 10 4 15 3 11 -3 -3 -6 -2 -10 4 -10 5 0 13 9 16 20 4 11
11 18 16 14 5 -3 6 -10 3 -16 -4 -7 -2 -8 4 -4 9 5 9 13 0 29 -10 20 -10 21 6
8 14 -12 16 -12 10 3 -7 19 11 22 20 4 3 -7 3 -2 -1 12 -5 23 -4 24 11 11 15
-13 19 -13 27 0 5 8 6 20 4 28 -4 11 -3 11 9 2 8 -7 12 -19 9 -27 -3 -8 0 -14
5 -14 6 0 9 9 7 20 -4 18 6 25 29 21 4 -1 13 3 20 8 7 6 17 6 26 1 23 -15 34
-12 20 5 -20 24 -5 18 16 -7 10 -12 14 -18 7 -15 -6 4 -14 3 -17 -2 -9 -14 22
-7 37 9 10 10 9 11 -3 5 -8 -5 -12 -5 -8 0 4 4 0 14 -10 22 -16 13 -15 13 3 4
11 -5 29 -17 40 -25 19 -15 19 -16 1 -9 -12 4 -17 3 -13 -4 8 -13 57 -14 57
-2 0 5 5 9 11 9 5 0 8 -4 5 -9 -3 -5 1 -11 9 -15 8 -3 15 -1 15 4 0 6 5 10 10
10 6 0 9 -3 8 -7 -2 -5 2 -9 7 -10 6 -1 9 6 7 15 -2 13 -1 14 6 4 5 -7 16 -10
24 -7 17 7 51 -22 43 -36 -4 -5 -1 -9 5 -9 6 0 10 7 8 16 -2 11 5 18 19 19 12
1 21 -3 20 -9 -1 -6 4 -10 11 -8 6 1 12 -2 12 -8 0 -13 -17 -13 -25 0 -10 17
-21 11 -22 -12 -1 -13 1 -18 5 -13 4 6 22 10 39 10 28 0 32 -3 27 -20 -3 -11
-2 -16 3 -10 4 6 19 11 32 13 18 2 22 -2 19 -16 -3 -12 0 -19 9 -19 8 0 12 8
8 21 -3 12 -2 15 1 9 3 -7 10 -13 15 -13 6 0 8 4 5 8 -3 5 1 9 9 9 9 0 11 -5
6 -11 -4 -6 -1 -22 6 -36 14 -23 14 -24 10 -3 -3 13 0 26 5 30 6 3 8 1 4 -5
-12 -19 14 -24 39 -8 24 16 37 44 13 30 -7 -4 -8 -3 -4 5 4 6 12 8 18 5 7 -5
9 -1 5 9 -3 9 -1 19 5 23 7 5 5 12 -8 22 -15 12 -15 13 -2 9 9 -3 22 1 30 10
11 15 11 16 -4 10 -10 -3 -18 -2 -18 3 0 6 9 10 19 10 11 0 23 4 26 10 3 5 0
7 -7 5 -8 -3 -22 1 -33 10 -16 12 -16 14 -3 9 13 -4 16 -1 13 14 -3 16 1 19
18 15 22 -5 22 -5 2 11 -11 10 -14 15 -7 11 6 -3 12 -3 13 2 0 4 2 17 4 27 2
11 -4 25 -13 32 -15 12 -15 13 6 9 18 -3 21 -1 13 13 -6 12 -3 23 12 37 18 18
19 18 14 2 -4 -12 -3 -16 4 -11 6 3 9 15 6 25 -3 10 -1 22 4 25 6 3 5 11 -2
20 -9 11 -8 14 7 14 16 0 16 2 4 9 -8 6 -17 8 -21 5 -4 -2 -2 7 4 21 7 14 16
25 20 25 5 0 5 5 1 12 -4 7 -3 8 4 4 7 -4 12 -2 12 4 0 6 4 9 9 5 5 -3 13 0
17 6 4 7 3 9 -3 6 -6 -4 -13 1 -15 11 -3 11 0 19 8 19 7 0 10 -5 7 -10 -3 -6
-1 -7 5 -3 18 11 14 26 -5 27 -17 1 -17 2 -1 6 9 2 20 13 23 24 4 11 10 17 15
14 7 -4 20 17 19 31 0 4 5 11 13 15 10 7 9 9 -4 9 -20 0 -24 15 -6 26 7 5 8 3
3 -6 -5 -8 -4 -11 2 -7 6 4 9 18 8 31 -2 18 1 23 11 19 8 -3 12 -9 9 -13 -7
-11 22 -6 32 5 4 4 3 5 -3 2 -7 -4 -17 0 -23 7 -10 11 -8 16 10 21 17 6 19 9
8 16 -11 7 -10 9 4 9 10 0 15 5 12 11 -4 6 -14 8 -22 5 -8 -4 -11 -1 -8 5 4 6
13 8 21 5 8 -3 14 -1 14 4 0 6 9 10 20 10 18 0 19 3 9 21 -8 15 -8 19 0 15 6
-4 11 -3 11 3 0 6 7 8 16 4 14 -5 15 -3 4 18 l-13 24 22 -20 c12 -11 22 -15
21 -10 -5 24 1 34 18 29 14 -5 14 -4 2 4 -10 8 -18 8 -27 0 -10 -8 -12 -7 -8
4 3 8 17 21 30 28 13 7 22 17 19 22 -3 4 2 11 10 14 9 3 16 12 16 19 0 7 6 18
14 24 11 10 17 8 25 -6 10 -16 10 -15 8 6 -1 14 4 26 13 28 13 4 13 3 0 -6
-12 -8 -11 -10 7 -8 13 1 19 5 14 12 -15 20 -5 38 23 42 23 3 27 1 22 -12 -3
-9 -2 -13 4 -10 6 4 8 17 6 30 -3 15 3 30 17 42 11 10 17 13 14 7 -7 -12 21
-29 31 -19 3 3 1 5 -5 5 -5 0 -10 7 -10 15 0 9 6 14 14 11 8 -3 11 -1 8 4 -3
6 -1 10 4 10 6 0 11 -8 12 -17 0 -12 2 -13 6 -5 3 7 -1 20 -9 29 -8 10 -8 14
-1 10 6 -4 20 1 30 11 10 11 28 18 40 17 17 -1 20 1 12 11 -7 9 -5 14 11 19
11 3 18 11 15 16 -3 5 2 6 11 2 11 -4 15 -3 10 5 -3 6 -2 13 3 16 5 4 13 1 17
-5 5 -8 3 -9 -6 -4 -8 5 -11 4 -7 -3 4 -5 17 -8 28 -5 19 5 19 7 5 15 -9 5
-14 14 -10 19 3 6 12 5 22 -3 9 -8 13 -8 9 -2 -7 11 19 29 36 25 4 0 10 6 13
14 3 8 10 12 15 9 5 -3 9 0 9 5 0 6 3 10 8 10 4 -1 14 -1 22 0 13 1 13 2 0 12
-13 9 -13 10 0 6 17 -4 21 -32 5 -32 -25 -2 -55 -17 -49 -27 4 -7 9 -6 14 2 4
6 16 13 26 14 10 2 24 13 31 26 6 13 22 25 34 27 19 3 20 1 9 -12 -11 -13 -15
-13 -21 -3 -6 9 -9 9 -9 1 0 -21 17 -23 35 -3 14 16 22 17 39 8 21 -10 21 -10
-1 11 -24 23 -38 28 -27 9 4 -7 3 -8 -5 -4 -13 9 -5 27 12 25 26 -3 38 2 32
14 -4 6 -1 5 7 -3 21 -24 46 -21 41 4 -4 19 -3 19 7 4 12 -20 30 -24 30 -7 0
5 -4 8 -8 5 -5 -3 -9 1 -9 9 0 12 4 12 20 -2 13 -11 17 -12 12 -4 -6 11 -4 13
9 8 12 -5 16 -3 13 5 -2 7 -11 12 -20 12 -9 -1 -14 2 -11 7 3 5 16 6 30 3 14
-4 31 -1 41 7 9 8 14 9 10 3 -4 -7 -1 -14 7 -17 8 -3 13 1 12 11 -1 10 7 17
19 17 11 0 25 3 30 6 6 4 18 5 28 4 16 -3 22 7 18 29 -1 5 4 4 12 -2 8 -7 18
-8 22 -4 5 4 5 1 1 -5 -4 -7 -3 -13 2 -13 7 0 8 -68 1 -77 -1 -3 -4 -13 -8
-29 0 -3 -6 -2 -12 1 -7 5 -4 14 8 28 14 17 14 19 1 9 -13 -10 -17 -10 -22 0
-3 7 -3 1 -1 -14 5 -36 14 -50 27 -42 6 4 8 3 5 -3 -4 -6 -17 -9 -30 -8 -19 2
-24 -2 -23 -19 0 -11 6 -24 11 -28 6 -5 5 -8 -2 -8 -7 0 -13 -9 -13 -21 0 -13
4 -18 12 -13 6 4 8 3 5 -4 -8 -12 -25 -11 -46 2 -9 6 -12 5 -7 -2 3 -6 -2 -15
-11 -21 -10 -6 -13 -11 -6 -11 6 0 15 5 18 10 4 6 11 7 17 4 7 -4 6 -9 -3 -14
-10 -7 -10 -12 1 -27 12 -15 11 -15 -9 2 -14 11 -21 14 -17 7 4 -7 3 -19 -4
-27 -7 -8 -7 -16 -1 -19 5 -3 7 -16 5 -29 -3 -15 -2 -17 3 -7 5 8 14 16 22 18
11 2 12 0 3 -10 -7 -9 -8 -19 -2 -28 7 -11 10 -12 10 -2 0 7 5 10 12 6 7 -4 8
-3 4 4 -4 7 -2 12 3 12 6 0 11 -4 11 -8 0 -5 13 -8 30 -8 24 0 29 3 26 20 -2
12 -1 16 1 9 2 -7 12 -9 21 -6 14 6 15 4 5 -8 -10 -13 -10 -16 2 -16 8 0 13 3
10 5 -3 3 1 12 8 20 10 13 9 14 -1 8 -11 -7 -12 -4 -3 13 7 11 14 21 17 21 3
0 3 -4 -1 -9 -3 -5 -1 -12 4 -16 6 -3 8 -13 5 -23 -5 -14 -4 -14 4 -3 6 8 8
21 4 29 -3 10 -1 13 6 8 7 -4 12 -2 12 6 0 9 3 9 10 -2 7 -11 10 -11 10 -2 0
9 5 10 18 3 10 -6 24 -6 32 -1 8 5 18 6 24 3 5 -3 6 -1 2 6 -4 6 -12 8 -18 5
-7 -4 -8 -2 -4 4 10 17 49 -5 40 -21 -4 -7 2 -4 13 6 11 9 24 14 29 10 5 -5
-1 4 -14 18 -17 19 -19 26 -8 26 8 0 13 -4 10 -9 -9 -14 14 -9 30 8 17 17 19
14 10 -10 -3 -9 -11 -13 -17 -9 -6 4 -7 1 -2 -7 6 -10 12 -7 26 11 16 21 24
20 20 -3 -2 -13 6 -9 20 9 8 9 9 14 3 10 -6 -3 -11 0 -11 7 0 11 5 12 24 3 13
-5 23 -15 23 -20 0 -6 3 -7 6 -4 4 4 1 13 -6 22 -11 13 -10 14 4 9 9 -3 16
-14 17 -23 0 -10 2 -11 6 -3 6 15 33 16 33 1 0 -5 -6 -7 -12 -3 -10 6 -10 4
-2 -7 6 -8 14 -21 18 -29 3 -8 4 -5 2 8 -2 12 0 22 5 22 5 0 9 -6 9 -14 0 -8
9 -18 20 -21 12 -4 17 -11 13 -18 -4 -7 1 -6 11 2 9 8 16 10 15 5 -4 -24 3
-34 24 -34 20 -1 20 -2 4 -11 -18 -11 -14 -29 6 -29 7 0 6 4 -3 10 -12 8 -10
10 8 10 15 0 21 -4 16 -12 -5 -7 -2 -9 9 -5 12 5 15 0 12 -21 -2 -15 -2 -21 1
-14 3 6 10 12 15 12 6 0 7 -6 3 -12 -5 -8 -2 -8 10 1 15 12 17 12 14 0 -2 -8
-7 -18 -13 -22 -6 -5 -1 -6 10 -3 11 3 27 1 35 -5 13 -9 12 -10 -2 -5 -10 3
-20 1 -23 -4 -3 -5 14 -7 37 -5 33 3 38 2 21 -5 -27 -11 -28 -14 -6 -31 10 -8
14 -9 10 -2 -4 6 -3 14 3 18 6 3 10 -4 10 -16 0 -18 3 -20 12 -11 15 15 28 15
28 1 0 -5 -4 -7 -10 -4 -5 3 -10 3 -10 -2 0 -4 11 -13 25 -20 14 -6 23 -8 20
-3 -3 4 5 10 16 13 12 3 18 10 14 16 -3 6 -8 19 -10 30 -3 15 1 18 18 14 20
-4 20 -3 -3 11 -24 14 -24 17 -1 20 5 0 13 5 18 10 5 5 3 6 -4 2 -7 -4 -13 -2
-13 4 0 6 -5 8 -12 4 -7 -4 -8 -3 -4 4 4 6 14 8 24 5 10 -4 7 2 -8 15 -15 12
-19 20 -10 19 8 -1 16 3 18 8 1 6 -2 11 -8 11 -22 3 -24 4 -12 16 9 9 9 15 -1
27 -9 12 -9 13 1 7 6 -4 12 -2 12 3 0 6 -6 11 -12 12 -10 0 -10 2 0 6 6 2 9
10 6 15 -4 6 -2 8 3 5 6 -4 10 -22 8 -42 -1 -19 1 -32 5 -30 4 3 7 22 5 42 -1
21 2 45 9 53 9 13 9 13 -5 2 -14 -10 -18 -10 -23 4 -4 10 -1 22 5 28 9 8 10 7
4 -3 -5 -9 -4 -12 2 -8 11 7 11 52 0 63 -3 4 -5 -2 -3 -13 3 -12 -1 -20 -10
-20 -8 0 -14 4 -14 9 0 4 5 8 12 8 6 0 8 3 5 7 -4 3 1 15 10 26 10 11 13 18 8
14 -6 -3 -17 4 -25 16 -12 21 -12 21 5 7 17 -14 18 -13 11 5 -11 29 -14 65 -5
60 4 -3 12 3 18 12 5 10 13 15 17 11 8 -9 44 9 44 23 0 6 -8 6 -22 -1 -21 -10
-21 -9 2 9 14 11 30 21 35 21 6 0 3 -5 -5 -10 -13 -8 -13 -10 1 -10 9 0 19 6
22 14 6 14 46 14 68 0z m479 -24 c0 -5 -2 -10 -4 -10 -3 0 -8 5 -11 10 -3 6
-1 10 4 10 6 0 11 -4 11 -10z m-1513 -155 c0 -8 -4 -12 -9 -9 -5 3 -6 10 -3
15 9 13 12 11 12 -6z m277 -147 c-3 -5 -12 -4 -20 3 -19 16 -18 18 6 12 11 -3
17 -9 14 -15z m-330 -19 c-3 -5 -10 -7 -15 -3 -5 3 -7 10 -3 15 3 5 10 7 15 3
5 -3 7 -10 3 -15z m81 -47 c-3 -3 -11 0 -18 7 -9 10 -8 11 6 5 10 -3 15 -9 12
-12z m-1132 -97 c-3 -9 -8 -14 -10 -11 -3 3 -2 9 2 15 9 16 15 13 8 -4z m2982
-65 c-3 -5 -1 -10 6 -10 7 0 10 -3 6 -6 -9 -9 -28 6 -22 17 4 5 8 9 11 9 3 0
2 -4 -1 -10z m665 -54 c0 -3 -4 -8 -10 -11 -5 -3 -10 -1 -10 4 0 6 5 11 10 11
6 0 10 -2 10 -4z m130 -8 c0 -4 -4 -8 -9 -8 -6 0 -12 4 -15 8 -3 5 1 9 9 9 8
0 15 -4 15 -9z m-261 -13 c3 -4 -7 -4 -22 -1 -16 3 -27 0 -27 -6 0 -6 -3 -9
-6 -5 -3 3 -3 10 0 16 6 10 43 7 55 -4z m-474 -5 c-3 -5 -1 -10 4 -10 6 0 11
-5 11 -11 0 -8 -5 -8 -15 1 -13 11 -12 30 1 30 3 0 2 -4 -1 -10z m789 2 c3 -5
-1 -9 -9 -9 -8 0 -12 4 -9 9 3 4 7 8 9 8 2 0 6 -4 9 -8z m111 -52 c3 -6 -1 -7
-9 -4 -18 7 -21 14 -7 14 6 0 13 -4 16 -10z m190 -140 c3 -5 1 -10 -4 -10 -6
0 -11 5 -11 10 0 6 2 10 4 10 3 0 8 -4 11 -10z m-945 -32 c0 -4 -6 -8 -14 -8
-8 0 -17 4 -20 8 -2 4 4 8 15 8 10 0 19 -4 19 -8z m-3251 -22 c16 -19 -18 -40
-40 -24 -11 8 -11 9 4 4 15 -5 22 4 18 27 -2 11 5 8 18 -7z m4238 -8 c4 -7 8
-19 9 -26 2 -10 -1 -10 -12 -1 -7 6 -12 15 -9 19 3 5 -1 11 -7 13 -9 4 -10 6
-1 6 6 1 15 -5 20 -11z m-958 -52 c-3 -3 -11 5 -18 17 -13 21 -12 21 5 5 10
-10 16 -20 13 -22z m-3309 10 c0 -3 -4 -8 -10 -11 -5 -3 -10 -1 -10 4 0 6 5
11 10 11 6 0 10 -2 10 -4z m3318 -51 c-3 -3 -9 2 -12 12 -6 14 -5 15 5 6 7 -7
10 -15 7 -18z m-3400 -165 c-7 -11 -16 -20 -20 -20 -11 0 -10 9 5 25 18 21 29
18 15 -5z m-478 -25 c14 -18 13 -19 -1 -8 -9 7 -19 10 -22 6 -4 -3 -7 -2 -7 4
0 9 12 26 14 21 1 -2 8 -12 16 -23z m30 5 c0 -5 -2 -10 -4 -10 -3 0 -8 5 -11
10 -3 6 -1 10 4 10 6 0 11 -4 11 -10z m407 -105 c0 -8 -4 -12 -9 -9 -5 3 -6
10 -3 15 9 13 12 11 12 -6z m-1135 -52 c-6 -2 -9 -10 -6 -15 4 -7 2 -8 -5 -4
-13 9 -5 26 12 25 9 0 8 -2 -1 -6z m408 -98 c0 -12 -19 -12 -23 0 -4 9 -1 12
9 8 7 -3 14 -7 14 -8z m4780 -76 c0 -4 -9 -7 -19 -6 -11 0 -18 4 -16 7 6 9 35
8 35 -1z m330 -73 c0 -3 -4 -8 -10 -11 -5 -3 -10 -1 -10 4 0 6 5 11 10 11 6 0
10 -2 10 -4z m-5700 -46 c0 -5 -5 -10 -11 -10 -5 0 -7 5 -4 10 3 6 8 10 11 10
2 0 4 -4 4 -10z m5034 -31 c-3 -5 -10 -7 -15 -3 -5 3 -7 10 -3 15 3 5 10 7 15
3 5 -3 7 -10 3 -15z m-4624 -89 c0 -5 -5 -10 -11 -10 -5 0 -7 5 -4 10 3 6 8
10 11 10 2 0 4 -4 4 -10z m4606 -192 c0 -10 -1 -18 -2 -18 0 0 -8 8 -17 18
-15 16 -15 18 1 18 10 0 18 -8 18 -18z m-14 -50 c-15 -15 -24 -6 -16 16 5 12
10 14 17 7 8 -8 8 -14 -1 -23z m291 -2 c3 -8 -3 -22 -14 -32 -18 -16 -19 -16
-13 -1 3 9 10 17 15 17 4 0 6 7 3 15 -4 8 -4 15 -1 15 3 0 7 -6 10 -14z m-283
-50 c0 -3 -4 -8 -10 -11 -5 -3 -10 -1 -10 4 0 6 5 11 10 11 6 0 10 -2 10 -4z
m-4985 -134 c-3 -3 -11 0 -18 7 -9 10 -8 11 6 5 10 -3 15 -9 12 -12z m4942
-65 c0 -7 -9 -14 -20 -14 -19 -2 -19 -2 -1 12 11 8 19 15 20 15 0 0 1 -6 1
-13z m-4077 -82 c-7 -9 -15 -13 -17 -11 -6 6 20 36 26 30 2 -2 -2 -10 -9 -19z
m-38 -4 c-4 -11 -7 -12 -10 -2 -3 10 -6 10 -12 1 -5 -9 -9 -8 -13 2 -3 9 3 14
18 14 16 0 21 -4 17 -15z m-42 -5 c0 -2 -8 -10 -17 -17 -16 -13 -17 -12 -4 4
13 16 21 21 21 13z m4045 -156 c-3 -4 0 -11 5 -13 6 -3 5 -4 -1 -3 -7 1 -13
10 -15 19 -1 9 2 15 7 11 5 -3 7 -9 4 -14z m-4477 -33 c14 4 14 3 2 -5 -16
-12 -30 -7 -29 11 0 9 2 9 5 0 3 -7 13 -9 22 -6z m572 -2 c0 -7 -30 -13 -34
-7 -3 4 4 9 15 9 10 1 19 0 19 -2z m4105 -34 c-3 -6 -11 -11 -16 -11 -5 0 -4
6 3 14 14 16 24 13 13 -3z m-4575 -9 c0 -5 -7 -9 -15 -9 -8 0 -12 4 -9 9 3 4
9 8 15 8 5 0 9 -4 9 -8z m335 -1 c3 -5 2 -12 -3 -15 -5 -3 -9 1 -9 9 0 17 3
19 12 6z m182 3 c-3 -3 -12 -4 -19 -1 -8 3 -5 6 6 6 11 1 17 -2 13 -5z m3813
-40 c0 -8 -19 -13 -24 -6 -3 5 1 9 9 9 8 0 15 -2 15 -3z m-3689 -140 c2 2 10
-2 17 -10 7 -8 9 -14 5 -14 -12 1 -59 29 -49 30 5 0 5 6 0 13 -5 7 -2 5 7 -5
9 -9 18 -16 20 -14z m3570 -5 c-13 -10 -28 -19 -35 -19 -6 1 1 8 17 16 15 8
27 20 27 26 0 6 3 8 8 4 4 -4 -4 -16 -17 -27z m139 -103 c0 -3 -4 -8 -10 -11
-5 -3 -10 -1 -10 4 0 6 5 11 10 11 6 0 10 -2 10 -4z m-83 -61 c0 -8 -4 -12 -9
-9 -5 3 -6 10 -3 15 9 13 12 11 12 -6z m-3070 -17 c-3 -8 -6 -5 -6 6 -1 11 2
17 5 13 3 -3 4 -12 1 -19z m-332 -27 c3 -5 2 -12 -3 -15 -5 -3 -9 1 -9 9 0 17
3 19 12 6z m3350 -10 c3 -5 1 -12 -4 -15 -5 -3 -11 1 -15 9 -6 16 9 21 19 6z
m-255 -35 c0 -2 -7 -6 -15 -10 -8 -3 -15 -1 -15 4 0 6 7 10 15 10 8 0 15 -2
15 -4z m194 -21 c-7 -16 -24 -21 -24 -6 0 8 7 13 27 20 1 1 0 -6 -3 -14z
m-3181 -45 c3 -11 3 -20 1 -20 -2 0 -8 9 -14 20 -6 11 -7 20 -2 20 6 0 12 -9
15 -20z m69 -44 c7 4 8 2 4 -5 -9 -13 -26 -5 -25 12 0 9 2 8 6 -1 2 -6 10 -9
15 -6z m122 -71 c-4 -8 -11 -12 -16 -9 -6 4 -5 10 3 15 19 12 19 11 13 -6z
m2471 -15 c4 -6 3 -10 -2 -9 -21 4 -34 -2 -27 -13 4 -7 3 -8 -5 -4 -9 6 -9 11
0 22 14 17 25 18 34 4z m-88 -39 c0 -11 -5 -18 -9 -15 -4 3 -5 11 -1 19 7 21
12 19 10 -4z m-1812 -51 c-3 -5 -1 -10 4 -10 6 0 11 -4 11 -8 0 -5 -6 -9 -14
-9 -7 0 -12 7 -11 16 5 22 4 21 11 21 3 0 2 -4 -1 -10z m-246 -57 c0 -11 -3
-13 -6 -5 -2 6 -10 9 -15 6 -7 -4 -8 -2 -4 4 11 18 26 14 25 -5z m485 -39 c5
-14 4 -15 -9 -4 -17 14 -19 20 -6 20 5 0 12 -7 15 -16z m1491 7 c3 -5 2 -12
-3 -15 -5 -3 -9 1 -9 9 0 17 3 19 12 6z m-1435 -11 c0 -4 -7 -7 -15 -6 -23 3
-26 12 -5 13 11 1 20 -2 20 -7z m154 -38 c3 -5 -1 -9 -9 -9 -8 0 -12 4 -9 9 3
4 7 8 9 8 2 0 6 -4 9 -8z m660 -8 c3 -8 2 -12 -4 -9 -6 3 -10 10 -10 16 0 14
7 11 14 -7z m477 -7 c-10 -9 -11 -8 -5 6 3 10 9 15 12 12 3 -3 0 -11 -7 -18z
m-1071 3 c0 -5 -5 -10 -11 -10 -5 0 -7 5 -4 10 3 6 8 10 11 10 2 0 4 -4 4 -10z
m175 -18 c-3 -3 -11 0 -18 7 -9 10 -8 11 6 5 10 -3 15 -9 12 -12z m-362 -45
c3 -8 -1 -14 -8 -14 -7 0 -11 6 -8 14 3 7 6 13 8 13 2 0 5 -6 8 -13z m942 -7
c-20 -22 -39 -27 -32 -7 2 6 9 12 15 12 5 0 14 3 18 8 17 16 16 6 -1 -13z m45
16 c0 -3 -4 -8 -10 -11 -5 -3 -10 -1 -10 4 0 6 5 11 10 11 6 0 10 -2 10 -4z
m-915 -24 c-3 -3 -11 0 -18 7 -9 10 -8 11 6 5 10 -3 15 -9 12 -12z m99 -20 c3
-5 -1 -9 -9 -9 -8 0 -15 4 -15 9 0 10 17 10 24 0z"/>
<path d="M2744 3553 c4 -7 2 -14 -3 -14 -37 -5 -52 -7 -58 -9 -5 -1 -11 -2
-15 -1 -4 0 -5 -6 -1 -14 5 -13 7 -13 19 2 11 15 13 15 14 3 0 -9 3 -11 8 -5
10 14 46 19 37 6 -3 -6 -2 -11 3 -11 18 0 21 28 4 42 -11 9 -14 10 -8 1z"/>
<path d="M3676 3533 c-6 -14 -5 -15 5 -6 7 7 10 15 7 18 -3 3 -9 -2 -12 -12z"/>
<path d="M3945 3520 c-3 -5 -1 -10 4 -10 6 0 11 5 11 10 0 6 -2 10 -4 10 -3 0
-8 -4 -11 -10z"/>
<path d="M3611 3506 c-10 -11 -9 -14 1 -12 14 2 23 15 15 22 -2 2 -10 -2 -16
-10z"/>
<path d="M3990 3480 c0 -5 5 -10 11 -10 5 0 7 5 4 10 -3 6 -8 10 -11 10 -2 0
-4 -4 -4 -10z"/>
<path d="M3603 3469 c9 -6 14 -15 11 -21 -4 -7 -2 -8 5 -4 14 9 -3 36 -23 36
-6 0 -3 -5 7 -11z"/>
<path d="M4145 3409 c-4 -6 -5 -12 -2 -15 2 -3 7 2 10 11 7 17 1 20 -8 4z"/>
<path d="M2234 3349 c-3 -6 -3 -13 0 -16 3 -4 6 -1 6 7 0 10 3 10 15 0 9 -7
15 -8 15 -2 0 14 -28 23 -36 11z"/>
<path d="M2140 3280 c-8 -5 -10 -10 -5 -10 6 0 17 5 25 10 8 5 11 10 5 10 -5
0 -17 -5 -25 -10z"/>
<path d="M4330 3260 c0 -5 5 -10 11 -10 5 0 7 5 4 10 -3 6 -8 10 -11 10 -2 0
-4 -4 -4 -10z"/>
<path d="M2070 3238 c0 -4 4 -8 9 -8 6 0 12 4 15 8 3 5 -1 9 -9 9 -8 0 -15 -4
-15 -9z"/>
<path d="M3230 3219 c0 -5 5 -7 10 -4 6 3 10 8 10 11 0 2 -4 4 -10 4 -5 0 -10
-5 -10 -11z"/>
<path d="M1954 3159 c-4 -7 -3 -9 4 -5 5 3 13 0 15 -6 4 -9 6 -10 6 -1 1 17
-16 25 -25 12z"/>
<path d="M1896 3108 c3 -5 10 -6 15 -3 13 9 11 12 -6 12 -8 0 -12 -4 -9 -9z"/>
<path d="M4530 3083 c0 -5 4 -14 9 -21 7 -11 9 -11 14 1 3 8 3 18 0 21 -9 8
-23 7 -23 -1z"/>
<path d="M1808 3016 c-10 -7 -15 -16 -12 -19 4 -3 13 1 21 9 20 19 13 26 -9
10z"/>
<path d="M4703 2883 c4 -3 1 -13 -6 -22 -11 -14 -10 -14 5 -2 16 12 16 31 1
31 -4 0 -3 -3 0 -7z"/>
<path d="M1670 2839 c0 -5 5 -7 10 -4 6 3 10 8 10 11 0 2 -4 4 -10 4 -5 0 -10
-5 -10 -11z"/>
<path d="M4740 2795 c-7 -9 -10 -18 -7 -21 3 -3 10 4 17 15 13 25 8 27 -10 6z"/>
<path d="M4786 2681 c-4 -5 3 -7 14 -4 23 6 26 13 6 13 -8 0 -17 -4 -20 -9z"/>
<path d="M4870 2580 c0 -5 5 -10 10 -10 6 0 10 5 10 10 0 6 -4 10 -10 10 -5 0
-10 -4 -10 -10z"/>
<path d="M4177 2507 c-3 -9 -12 -17 -19 -17 -9 0 -8 3 2 10 13 9 13 10 0 10
-9 0 -22 -6 -29 -12 -11 -10 -13 -10 -7 0 8 14 -3 16 -24 3 -8 -6 -19 -7 -25
-3 -20 13 -31 9 -32 -10 -2 -20 -1 -20 13 -2 14 17 14 17 3 -6 -7 -14 -14 -34
-16 -45 -3 -19 -3 -19 10 -1 13 17 14 17 20 2 4 -10 11 -15 16 -12 5 4 8 -1 7
-10 -1 -8 -9 -20 -17 -25 -10 -6 -10 -9 -1 -9 6 0 12 -7 12 -16 0 -8 4 -13 9
-10 5 4 8 -2 6 -11 -1 -10 2 -24 8 -31 7 -9 6 -11 -7 -6 -11 4 -15 13 -11 23
5 13 4 14 -6 4 -10 -10 -10 -16 -1 -25 9 -9 7 -14 -5 -23 -13 -10 -13 -14 -3
-20 9 -6 11 -4 5 5 -5 9 -4 11 4 6 21 -13 -1 -28 -33 -22 l-31 6 25 -14 c14
-8 29 -12 34 -9 5 4 6 1 3 -5 -4 -5 -17 -8 -29 -4 -12 3 -19 1 -15 -4 3 -6 2
-16 -4 -24 -7 -12 -9 -12 -9 -1 0 9 -6 11 -17 6 -46 -19 -102 -8 -87 16 3 5 0
9 -6 9 -7 0 -10 -7 -7 -15 4 -8 1 -17 -5 -21 -7 -4 -8 -3 -4 4 5 8 -2 12 -18
12 -14 0 -26 5 -26 11 0 5 -4 8 -10 4 -5 -3 -19 4 -31 16 -18 18 -21 19 -16 4
4 -9 3 -23 -3 -30 -8 -9 -8 -15 0 -20 6 -4 9 -1 8 6 -2 6 3 14 10 16 11 4 12
1 3 -16 -7 -11 -16 -21 -22 -21 -5 0 -1 -10 11 -22 22 -24 19 -38 -4 -18 -13
10 -13 8 0 -19 9 -17 18 -31 20 -31 3 0 2 4 -1 10 -4 6 1 7 11 3 11 -4 13 -8
6 -11 -13 -4 -17 -23 -4 -21 19 3 29 -2 29 -17 0 -14 -2 -14 -14 2 -7 10 -13
14 -13 9 0 -4 -10 0 -22 11 -14 12 -18 13 -10 3 6 -9 8 -20 4 -24 -4 -5 -2 -5
4 -2 6 4 21 -2 33 -12 22 -19 29 -37 10 -25 -7 4 -4 -7 7 -24 11 -20 21 -27
25 -20 11 17 48 18 42 1 -3 -8 -10 -10 -17 -6 -7 5 -4 1 6 -8 9 -9 14 -20 10
-25 -4 -5 2 -2 12 6 14 11 18 11 12 2 -5 -9 -3 -13 5 -11 20 3 50 -12 43 -22
-3 -5 6 -5 20 1 18 6 26 6 26 -1 0 -6 4 -8 9 -5 15 9 42 -5 34 -18 -4 -6 1 -5
10 3 15 12 17 12 14 0 -2 -8 -2 -11 0 -6 8 12 25 8 38 -9 11 -15 12 -15 12 0
0 8 -9 19 -20 22 -16 5 -17 8 -6 15 8 5 19 9 24 9 6 0 4 -4 -3 -9 -10 -6 -9
-10 7 -14 14 -3 19 -1 14 6 -4 6 0 8 10 4 12 -4 17 -1 17 11 0 15 2 15 10 2 5
-8 10 -11 10 -6 0 5 7 2 17 -5 15 -13 15 -12 5 7 -10 19 -9 21 16 17 18 -3 23
-2 14 4 -10 7 -8 13 7 27 14 13 21 14 27 5 5 -8 3 -10 -6 -4 -9 6 -11 4 -5 -5
5 -9 4 -11 -3 -6 -8 5 -10 2 -6 -9 6 -14 8 -14 19 2 7 10 11 21 9 25 -3 5 0 8
6 8 7 0 8 6 1 19 -9 16 -8 18 8 14 21 -5 40 21 36 49 -2 10 0 16 3 15 4 -1 18
6 32 16 13 9 19 17 13 17 -6 0 -13 9 -16 20 -3 11 -1 17 4 14 15 -9 5 41 -11
62 -14 18 -14 18 5 3 11 -9 27 -20 35 -24 13 -8 13 -6 2 7 -10 12 -10 18 -1
23 8 6 7 10 -2 16 -11 7 -11 12 -2 27 7 12 8 24 2 33 -8 11 -9 10 -7 -6 2 -14
-3 -20 -19 -21 -12 -1 -20 3 -17 8 3 4 9 6 13 4 4 -3 8 4 8 15 1 10 -3 19 -8
19 -6 0 -7 -4 -4 -10 14 -22 -4 -8 -19 15 -12 18 -14 31 -7 42 5 11 5 23 -2
34 -10 16 -12 15 -29 -5 -10 -11 -18 -16 -17 -11 3 24 -2 36 -13 29 -7 -5 -8
-3 -3 6 6 10 11 9 22 -5 7 -11 13 -14 13 -9 0 6 -5 15 -12 22 -9 9 -9 12 0 12
7 0 12 5 12 10 0 6 -12 2 -27 -7 l-28 -18 19 30 19 30 -28 -25 c-16 -14 -25
-19 -21 -12 4 6 2 12 -3 12 -6 0 -11 6 -11 13 0 20 -37 51 -45 38 -6 -11 1
-15 18 -12 5 1 5 -4 1 -10 -4 -7 -3 -9 3 -6 5 3 10 0 10 -7 0 -7 -6 -13 -13
-13 -7 0 -11 4 -9 8 7 10 -20 30 -29 22 -4 -4 -4 1 0 11 5 13 4 17 -3 13 -6
-4 -13 -2 -15 5 -3 8 -7 6 -11 -5z m-67 -127 c0 -5 -2 -10 -4 -10 -3 0 -8 5
-11 10 -3 6 -1 10 4 10 6 0 11 -4 11 -10z m265 0 c3 -5 1 -10 -4 -10 -6 0 -11
5 -11 10 0 6 2 10 4 10 3 0 8 -4 11 -10z m10 -89 c3 -5 2 -12 -3 -15 -5 -3 -9
1 -9 9 0 17 3 19 12 6z m39 -57 c10 -25 -1 -29 -14 -5 -6 12 -7 21 -1 21 5 0
12 -7 15 -16z m-19 -132 c-3 -3 -12 -7 -21 -8 -11 -2 -12 1 -5 10 6 7 7 17 3
22 -4 4 1 2 11 -5 9 -8 15 -16 12 -19z m-515 -113 c0 -6 -4 -7 -10 -4 -5 3
-10 11 -10 16 0 6 5 7 10 4 6 -3 10 -11 10 -16z"/>
<path d="M4023 2480 c2 -8 0 -23 -5 -32 -5 -11 -5 -18 0 -18 14 0 21 36 10 51
-8 11 -9 11 -5 -1z"/>
<path d="M2891 2443 c4 -21 -3 -31 -18 -28 -10 1 -17 8 -15 15 1 6 -2 9 -8 5
-8 -5 -7 -11 1 -21 10 -12 9 -13 -5 -8 -9 3 -16 1 -16 -4 0 -6 8 -13 18 -16
13 -4 12 -4 -3 -3 -14 2 -19 9 -18 24 2 16 -3 21 -17 20 -14 -1 -16 -4 -9 -14
13 -15 3 -34 -15 -27 -7 3 -19 -3 -27 -13 -12 -16 -12 -17 2 -6 14 11 16 9 14
-16 -1 -22 2 -28 13 -23 10 3 13 1 8 -6 -4 -7 -2 -12 3 -12 6 0 11 5 11 12 0
6 3 8 6 5 4 -4 1 -13 -6 -22 -11 -13 -10 -14 3 -10 8 4 18 1 23 -6 5 -8 3 -10
-6 -4 -10 6 -12 4 -7 -9 4 -10 7 -20 7 -22 0 -3 4 -3 8 0 11 6 9 -25 -2 -43
-5 -8 -3 -17 5 -22 8 -5 9 -9 4 -9 -6 0 -17 6 -24 13 -11 10 -11 8 -2 -10 14
-27 14 -33 0 -33 -5 0 -7 5 -4 10 3 6 4 10 1 10 -2 0 -13 3 -23 6 -13 4 -15 3
-4 -4 21 -15 -33 -71 -65 -67 -13 1 -27 -2 -30 -7 -3 -5 -15 -6 -27 -2 -20 6
-21 5 -7 -12 14 -18 14 -18 -2 -5 -10 7 -18 10 -18 5 0 -4 -5 -3 -11 3 -6 6
-19 9 -28 6 -11 -4 -10 -1 4 10 11 8 17 19 12 23 -4 4 -7 2 -7 -4 0 -7 -5 -12
-10 -12 -6 0 -9 6 -8 13 2 7 -6 12 -19 11 -13 -1 -23 3 -23 7 0 5 -5 9 -11 9
-8 0 -9 -4 0 -13 6 -8 8 -17 4 -20 -9 -10 -25 -9 -19 1 3 5 -1 9 -9 9 -19 0
-19 -13 -1 -20 8 -3 12 -16 11 -31 -3 -23 -1 -25 18 -14 l22 11 -20 -23 c-19
-22 -19 -23 -1 -16 15 5 17 4 7 -8 -9 -11 -8 -17 4 -30 9 -9 12 -16 7 -16 -6
0 -13 -7 -16 -16 -4 -12 -2 -15 9 -10 8 3 15 1 15 -3 0 -5 -6 -12 -12 -14 -10
-4 -10 -6 0 -6 7 -1 11 -5 7 -10 -3 -5 0 -13 6 -17 8 -4 9 -3 5 4 -10 17 3 15
20 -2 17 -18 18 -33 2 -38 -9 -3 -9 -6 0 -12 7 -4 12 -2 12 3 0 6 5 11 11 11
5 0 7 -5 3 -11 -4 -7 1 -7 16 1 12 7 20 7 16 2 -3 -6 -3 -12 1 -15 5 -2 1 -2
-7 0 -11 2 -10 -1 3 -11 10 -8 13 -16 7 -18 -5 -1 -1 -9 9 -15 15 -9 22 -10
27 -1 4 6 3 8 -4 4 -6 -3 -13 -2 -16 3 -3 5 3 11 14 14 11 3 18 2 15 -2 -2 -5
3 -17 11 -27 9 -10 13 -13 9 -6 -9 17 10 15 25 -3 14 -17 30 -20 30 -4 0 5 -5
7 -12 3 -7 -5 -8 -3 -3 6 5 9 4 11 -3 6 -7 -4 -12 -2 -12 3 0 15 13 14 28 -1
7 -7 20 -13 30 -13 10 0 16 -7 16 -18 -2 -13 1 -15 10 -7 7 5 17 6 22 2 5 -4
-2 6 -16 23 -14 16 -18 24 -8 17 9 -7 18 -9 20 -5 3 4 3 2 2 -4 -5 -18 11 -16
30 3 9 8 16 11 16 5 0 -14 20 -10 38 7 20 18 36 15 18 -4 -21 -21 -20 -30 2
-13 27 22 41 43 35 54 -4 5 -2 7 2 2 5 -4 17 1 28 10 11 10 17 13 14 7 -4 -7
-1 -14 7 -17 9 -4 12 0 9 13 -3 12 5 23 26 36 17 10 31 27 31 37 0 17 2 18 18
6 16 -13 16 -12 3 4 -19 23 -22 57 -5 50 6 -2 15 1 20 8 4 7 3 10 -3 6 -6 -4
-13 0 -17 8 -3 8 0 17 6 21 7 5 8 2 3 -7 -7 -12 -6 -12 7 -1 9 7 15 21 13 30
-1 9 3 21 9 25 7 6 6 7 -4 4 -8 -2 -14 -9 -13 -15 1 -5 -3 -12 -10 -15 -7 -3
-13 3 -13 13 0 10 3 17 7 14 4 -2 7 7 7 21 0 15 -5 22 -12 18 -6 -3 -2 4 9 17
11 13 14 20 8 16 -9 -5 -13 1 -13 19 0 17 -4 24 -12 19 -7 -4 -8 -3 -4 5 4 6
11 9 16 6 5 -3 12 0 16 6 4 8 3 9 -4 5 -7 -4 -12 -2 -12 4 0 6 -5 8 -12 4 -10
-6 -10 -4 -2 7 5 8 9 20 8 27 -1 6 -2 18 -3 25 -1 9 -4 8 -10 -2 -8 -12 -13
-12 -36 3 -14 9 -29 24 -32 32 -3 7 -10 11 -17 7 -6 -4 -4 2 4 12 8 10 10 16
4 12 -6 -3 -20 0 -30 8 -15 12 -15 14 -3 9 10 -3 20 -1 24 5 4 7 0 8 -11 4
-12 -5 -15 -3 -9 6 6 10 3 11 -14 1 -12 -6 -27 -9 -34 -6 -9 3 -9 5 1 5 6 1
12 5 12 11 0 5 -7 6 -17 3 -12 -5 -14 -3 -8 7 5 9 4 11 -4 6 -6 -4 -9 -11 -7
-15 3 -4 -9 -7 -26 -6 -18 1 -34 8 -36 16 -3 11 -1 11 7 -1 8 -12 11 -12 11
-1 0 11 3 11 18 0 15 -13 16 -12 4 3 -8 9 -11 22 -8 27 4 5 2 13 -4 16 -6 4
-10 3 -9 -2z m-81 -77 c0 -3 -4 -8 -10 -11 -5 -3 -10 -1 -10 4 0 6 5 11 10 11
6 0 10 -2 10 -4z m280 -106 c0 -5 -2 -10 -4 -10 -3 0 -8 5 -11 10 -3 6 -1 10
4 10 6 0 11 -4 11 -10z m27 -5 c0 -8 -4 -12 -9 -9 -5 3 -6 10 -3 15 9 13 12
11 12 -6z m-315 -122 c-6 -2 -9 -10 -6 -15 4 -7 2 -8 -4 -4 -7 4 -12 2 -12 -3
0 -6 -5 -11 -12 -11 -6 0 -3 9 7 20 10 11 23 20 29 19 6 0 6 -3 -2 -6z m-243
-20 c-12 -15 -12 -16 6 -10 16 6 15 3 -5 -12 -14 -11 -27 -17 -30 -15 -2 3 2
9 10 14 8 6 11 10 6 10 -9 0 12 30 21 30 3 0 -1 -8 -8 -17z m173 -25 c-5 -5
-19 -10 -31 -13 -17 -3 -20 -1 -12 8 5 7 19 13 30 13 12 0 17 -4 13 -8z m368
-146 c0 -5 -6 -16 -13 -27 -11 -14 -16 -15 -22 -5 -5 8 -4 11 3 6 6 -3 13 3
17 14 6 20 15 27 15 12z"/>
<path d="M4060 2421 c0 -5 7 -12 16 -15 14 -5 15 -4 4 9 -14 17 -20 19 -20 6z"/>
<path d="M2770 2416 c0 -2 8 -10 18 -17 15 -13 16 -12 3 4 -13 16 -21 21 -21
13z"/>
<path d="M2745 2340 c-3 -6 1 -7 9 -4 18 7 21 14 7 14 -6 0 -13 -4 -16 -10z"/>
<path d="M4380 2341 c0 -5 7 -12 16 -15 14 -5 15 -4 4 9 -14 17 -20 19 -20 6z"/>
<path d="M3051 2330 c-1 -17 17 -40 31 -40 4 0 8 5 8 11 0 5 -5 7 -10 4 -6 -3
-14 4 -19 17 -6 14 -10 17 -10 8z"/>
<path d="M3846 2258 c5 -8 2 -9 -11 -4 -16 6 -16 4 -4 -10 9 -11 15 -12 17 -5
3 8 9 5 18 -6 12 -17 13 -16 8 4 -4 12 -13 24 -21 27 -9 4 -11 2 -7 -6z"/>
<path d="M5560 2241 c0 -6 4 -13 10 -16 6 -3 7 1 4 9 -7 18 -14 21 -14 7z"/>
<path d="M2825 2230 c6 -10 4 -12 -11 -6 -15 6 -17 5 -6 -5 9 -9 15 -10 23 -2
8 8 7 13 -2 18 -8 6 -10 4 -4 -5z"/>
<path d="M3947 2208 c-7 -4 3 -6 21 -4 18 2 35 6 38 9 8 8 -46 3 -59 -5z"/>
<path d="M771 2166 c-10 -11 -9 -14 1 -12 14 2 23 15 15 22 -2 2 -10 -2 -16
-10z"/>
<path d="M1415 2159 c-4 -6 -5 -12 -2 -15 2 -3 7 2 10 11 7 17 1 20 -8 4z"/>
<path d="M1033 2132 c0 -10 6 -19 13 -19 15 0 11 30 -4 35 -6 2 -10 -5 -9 -16z"/>
<path d="M4426 2134 c-5 -14 -4 -15 9 -4 17 14 19 20 6 20 -5 0 -12 -7 -15
-16z"/>
<path d="M3144 2122 c0 -10 6 -19 13 -19 8 0 9 6 2 19 -5 10 -11 18 -12 18 -2
0 -3 -8 -3 -18z"/>
<path d="M1386 2122 c-3 -5 1 -9 9 -9 8 0 15 4 15 9 0 4 -4 8 -9 8 -6 0 -12
-4 -15 -8z"/>
<path d="M1380 2079 c-6 -11 -26 -29 -43 -41 -18 -11 -24 -17 -14 -14 10 3 28
1 40 -5 20 -9 20 -9 5 4 -22 18 -12 30 14 16 11 -6 22 -8 25 -6 2 3 -5 8 -16
12 -12 3 -19 11 -15 16 3 5 10 6 16 3 7 -5 8 -2 3 6 -4 7 -2 16 6 21 10 6 10
9 2 9 -7 0 -17 -9 -23 -21z"/>
<path d="M4386 2062 c-3 -5 1 -9 9 -9 8 0 12 4 9 9 -3 4 -7 8 -9 8 -2 0 -6 -4
-9 -8z"/>
<path d="M5386 2053 c-6 -14 -5 -15 5 -6 7 7 10 15 7 18 -3 3 -9 -2 -12 -12z"/>
<path d="M1261 2044 c0 -11 3 -14 6 -6 3 7 2 16 -1 19 -3 4 -6 -2 -5 -13z"/>
<path d="M4360 2000 c-9 -6 -10 -10 -3 -10 6 0 15 5 18 10 8 12 4 12 -15 0z"/>
<path d="M5176 1978 c3 -4 11 -5 19 -1 21 7 19 12 -4 10 -11 0 -18 -5 -15 -9z"/>
<path d="M3125 1970 c-3 -6 1 -7 9 -4 18 7 21 14 7 14 -6 0 -13 -4 -16 -10z"/>
<path d="M3966 1922 c-3 -5 1 -9 9 -9 8 0 12 4 9 9 -3 4 -7 8 -9 8 -2 0 -6 -4
-9 -8z"/>
<path d="M5075 1911 c-3 -5 0 -13 6 -17 7 -4 9 -3 5 4 -3 5 0 13 6 15 9 4 10
6 1 6 -6 1 -14 -3 -18 -8z"/>
<path d="M4044 1888 c9 -5 14 -13 11 -19 -3 -5 1 -6 10 -2 12 4 13 8 5 13 -9
6 -9 9 1 12 8 3 1 5 -15 5 -23 0 -26 -1 -12 -9z"/>
<path d="M5085 1870 c-4 -6 -11 -7 -17 -4 -7 4 -8 2 -4 -4 10 -16 23 -15 30 3
6 17 0 20 -9 5z"/>
<path d="M3006 1831 c-11 -12 -14 -21 -7 -26 11 -6 12 -5 15 18 1 6 8 11 15 9
7 -1 10 2 6 8 -8 13 -9 13 -29 -9z"/>
<path d="M5073 1795 c0 -7 6 -11 14 -8 7 3 13 6 13 8 0 2 -6 5 -13 8 -8 3 -14
-1 -14 -8z"/>
<path d="M2880 1780 c-13 -9 -13 -10 0 -10 13 0 13 -1 0 -11 -12 -8 -12 -10
-1 -7 8 2 15 12 17 21 3 20 3 19 -16 7z"/>
<path d="M2910 1780 c0 -5 5 -10 11 -10 5 0 7 5 4 10 -3 6 -8 10 -11 10 -2 0
-4 -4 -4 -10z"/>
<path d="M2790 1765 c-11 -13 -10 -14 4 -9 9 3 16 10 16 15 0 13 -6 11 -20 -6z"/>
<path d="M503 1729 c-1 -10 3 -19 8 -19 6 0 8 4 5 9 -4 5 -1 11 6 13 8 3 7 6
-3 10 -10 4 -15 -1 -16 -13z"/>
<path d="M5066 1722 c-3 -4 4 -9 15 -9 23 -2 25 3 4 10 -8 4 -16 3 -19 -1z"/>
<path d="M519 1603 c-13 -16 -12 -17 4 -4 9 7 17 15 17 17 0 8 -8 3 -21 -13z"/>
<path d="M545 1530 c10 -11 20 -18 23 -16 5 6 -23 36 -34 36 -4 0 1 -9 11 -20z"/>
<path d="M5036 1432 c-2 -4 2 -16 10 -27 8 -10 14 -14 14 -8 0 7 -5 15 -10 18
-6 4 -8 11 -5 16 4 5 4 9 1 9 -3 0 -7 -3 -10 -8z"/>
<path d="M1153 1347 c0 -19 24 -30 33 -16 3 6 3 13 0 16 -3 4 -6 0 -6 -7 0 -9
-4 -8 -13 4 -12 16 -14 16 -14 3z"/>
<path d="M1130 1314 c0 -8 5 -12 10 -9 6 4 8 11 5 16 -9 14 -15 11 -15 -7z"/>
<path d="M1100 1310 c-9 -6 -10 -10 -3 -10 6 0 15 5 18 10 8 12 4 12 -15 0z"/>
<path d="M4998 1293 c6 -2 9 -10 6 -15 -4 -7 -2 -8 5 -4 13 9 5 26 -12 25 -9
0 -8 -2 1 -6z"/>
<path d="M4038 1260 c17 -20 15 -30 -5 -24 -15 5 -15 4 -3 -4 8 -6 17 -9 21
-6 4 2 11 -1 15 -7 4 -8 3 -9 -4 -5 -7 4 -12 3 -12 -3 0 -6 -6 -8 -14 -5 -8 3
-21 -5 -30 -18 -9 -13 -16 -17 -16 -9 0 8 -3 11 -7 8 -3 -4 2 -17 13 -29 19
-22 19 -22 0 -8 -18 14 -19 13 -13 -2 3 -10 2 -18 -3 -18 -6 0 -10 4 -10 9 0
14 -30 7 -41 -10 -5 -8 -9 -10 -9 -5 0 5 -7 3 -15 -4 -12 -10 -12 -17 -3 -34
10 -19 10 -20 -6 -7 -14 12 -19 12 -29 1 -9 -9 -9 -11 0 -6 14 8 28 -10 14
-18 -5 -4 -12 -2 -16 4 -3 5 -11 10 -16 10 -6 0 -7 -5 -3 -12 5 -7 3 -8 -7 -2
-24 15 -35 12 -36 -8 -2 -20 -1 -20 13 -2 15 18 15 18 6 0 -5 -11 -17 -21 -26
-22 -9 -1 -13 2 -10 8 4 7 2 8 -4 4 -7 -4 -12 -2 -12 5 0 7 -3 10 -6 7 -3 -4
-1 -15 5 -25 8 -15 7 -20 -4 -20 -8 0 -12 4 -10 8 3 4 -2 10 -11 13 -8 3 -12
2 -9 -4 3 -6 -2 -10 -12 -10 -11 0 -24 -5 -30 -11 -8 -8 -13 -7 -18 2 -6 8 -4
10 5 4 9 -5 11 -4 6 4 -9 14 -27 4 -24 -14 2 -8 -1 -14 -5 -14 -5 0 -14 -7
-21 -17 -10 -13 -15 -14 -21 -4 -5 9 -4 11 3 6 7 -4 12 -3 12 2 0 16 -13 22
-27 11 -9 -9 -13 -8 -13 0 0 6 5 11 10 11 6 0 10 4 10 9 0 11 -19 9 -38 -3 -7
-4 -19 -3 -27 4 -8 7 -15 7 -19 1 -6 -10 -31 -9 -42 1 -7 8 -55 0 -70 -12 -7
-7 -11 -5 -11 5 0 8 4 12 8 9 4 -2 10 -1 13 4 2 4 -4 9 -15 9 -11 1 -19 -5
-19 -15 0 -13 -2 -13 -14 3 -13 18 -51 32 -40 14 3 -5 9 -7 14 -4 5 3 12 0 16
-6 5 -9 0 -10 -17 -6 -13 4 -28 7 -32 7 -5 0 -5 6 -1 13 6 9 4 9 -8 -1 -13
-10 -17 -10 -22 3 -3 9 -2 13 3 10 5 -3 13 0 17 7 4 7 3 10 -1 5 -5 -4 -17 1
-28 10 -11 10 -17 13 -14 6 5 -8 0 -11 -13 -10 -22 1 -27 13 -7 20 8 4 9 6 0
6 -6 1 -18 -6 -26 -14 -13 -12 -17 -12 -26 -1 -9 11 -9 16 0 22 8 4 9 3 5 -4
-4 -7 -2 -12 3 -12 16 0 14 9 -9 37 -11 14 -20 21 -20 16 0 -5 5 -14 12 -21 8
-8 9 -12 1 -12 -6 0 -16 12 -21 28 l-10 27 -2 -30 -1 -30 -12 27 c-11 25 -13
26 -32 11 -20 -15 -20 -15 3 -8 13 4 22 2 22 -4 0 -6 -10 -11 -22 -12 -22 -1
-22 -1 2 -8 22 -6 23 -8 7 -14 -19 -7 -15 -27 6 -27 7 0 6 4 -3 10 -13 8 -12
10 3 10 17 0 22 -11 10 -23 -3 -4 -7 -19 -9 -34 -1 -16 0 -22 3 -15 4 10 11 8
29 -9 13 -12 21 -25 19 -30 -3 -4 -1 -10 4 -13 5 -4 13 -1 17 5 5 8 3 9 -6 4
-9 -5 -11 -4 -6 4 4 6 12 9 17 5 6 -4 4 -14 -5 -28 -12 -19 -12 -23 -1 -23 8
0 13 5 12 10 -1 5 4 12 11 14 7 3 10 -1 6 -11 -4 -10 3 -19 20 -27 14 -7 23
-17 19 -23 -3 -6 0 -5 8 2 7 6 17 12 22 12 4 0 5 -6 0 -12 -11 -19 -13 -39 -2
-32 5 3 7 10 4 15 -4 5 -1 9 4 9 10 0 16 -22 12 -43 -1 -5 3 -5 9 -2 6 4 9 14
5 24 -5 12 -3 13 6 4 6 -6 17 -9 24 -7 6 3 18 -3 26 -12 8 -10 9 -15 4 -12 -6
4 -11 -3 -12 -15 0 -12 1 -16 4 -9 3 6 11 12 19 12 8 0 11 7 8 18 -5 14 -4 14
4 2 6 -8 9 -17 6 -21 -2 -4 3 -10 12 -13 8 -3 13 -2 10 2 -3 5 1 9 9 9 8 0 12
-4 9 -9 -3 -4 0 -8 6 -8 6 0 8 -6 4 -12 -4 -7 -4 -10 1 -6 4 4 14 3 21 -3 8
-7 14 -6 20 2 4 7 3 9 -2 6 -6 -3 -16 4 -23 16 -11 18 -11 20 0 10 7 -7 21
-13 32 -13 12 0 16 -4 11 -12 -6 -10 -4 -10 7 -3 12 9 61 12 79 5 3 -1 17 -3
33 -5 19 -3 25 0 20 8 -4 7 2 5 12 -3 17 -14 18 -13 12 4 -7 17 -6 17 10 5 15
-12 16 -12 9 5 -7 19 -6 19 14 1 11 -10 23 -15 27 -12 3 4 1 7 -5 7 -9 0 -9 5
0 19 7 11 15 18 19 15 4 -2 12 4 18 13 6 10 11 12 11 5 0 -14 21 -12 33 3 5 6
6 -1 3 -15 -3 -14 -3 -19 0 -12 3 6 10 10 15 6 5 -3 9 -2 8 3 -3 20 2 27 11
13 8 -13 10 -12 10 3 0 9 -5 17 -12 17 -6 0 -3 7 8 15 10 8 24 14 29 14 6 0 2
-6 -8 -13 -10 -8 -14 -17 -9 -20 5 -3 16 8 25 25 8 19 17 27 21 20 4 -6 4 -15
1 -21 -3 -5 -4 -10 -1 -10 3 0 10 10 17 21 8 15 8 19 0 15 -6 -4 -11 0 -11 9
0 9 4 13 10 10 5 -3 23 2 40 12 l30 17 -23 13 c-12 7 -16 12 -8 13 11 0 11 3
0 18 -13 15 -12 16 3 3 10 -7 16 -17 13 -21 -7 -11 22 -6 32 5 4 4 3 5 -3 2
-7 -4 -15 0 -18 9 -4 12 -2 15 9 10 8 -3 15 -1 15 5 0 6 4 8 8 5 4 -2 9 12 10
32 2 20 10 40 18 45 11 6 12 13 3 29 -6 11 -7 18 -2 15 5 -3 14 -2 21 2 8 5 8
14 -3 34 -7 14 -11 26 -7 26 28 -4 32 3 11 22 -21 17 -21 19 -3 10 16 -8 21
-7 21 4 0 8 -4 12 -9 9 -4 -3 -8 -1 -8 5 0 6 -7 8 -15 5 -8 -4 -23 0 -33 7
-14 11 -15 11 -4 -1z m-10 -87 c0 -21 -2 -23 -10 -9 -5 9 -6 21 -3 26 10 16
13 12 13 -17z m-74 -42 c3 -5 -1 -14 -8 -20 -12 -10 -13 -8 -9 8 6 23 9 25 17
12z m-37 -18 c-4 -3 -1 -13 6 -22 11 -14 10 -14 -5 -2 -16 12 -16 31 -1 31 4
0 3 -3 0 -7z m-752 -95 c5 4 5 2 1 -5 -3 -6 2 -16 11 -22 10 -6 13 -11 7 -11
-12 0 -36 25 -48 50 -5 9 -2 8 7 -2 8 -10 18 -14 22 -10z m870 12 c-3 -5 -12
-10 -18 -10 -7 0 -6 4 3 10 19 12 23 12 15 0z m-571 -62 c-3 -4 -11 -8 -17 -7
-9 0 -9 2 0 5 7 3 9 13 6 22 -4 14 -3 14 5 2 6 -8 8 -18 6 -22z m38 18 c3 2 8
-2 12 -11 4 -10 2 -14 -5 -9 -6 4 -16 0 -21 -7 -8 -11 -9 -11 -5 2 3 9 0 23
-6 30 -10 11 -9 11 4 1 9 -6 18 -9 21 -6z m75 2 c13 15 13 15 4 -4 -6 -12 -7
-25 -3 -30 4 -5 -1 -2 -11 6 -16 12 -20 12 -28 -1 -8 -10 -8 -8 -4 10 5 17 4
22 -5 16 -9 -6 -11 -4 -5 4 6 10 11 9 23 -3 14 -14 17 -14 29 2z m397 -42
c-10 -8 -21 -12 -24 -10 -5 6 21 24 34 24 6 0 1 -6 -10 -14z"/>
<path d="M4095 1180 c3 -5 8 -10 11 -10 2 0 4 5 4 10 0 6 -5 10 -11 10 -5 0
-7 -4 -4 -10z"/>
<path d="M4955 1180 c3 -5 8 -10 11 -10 2 0 4 5 4 10 0 6 -5 10 -11 10 -5 0
-7 -4 -4 -10z"/>
<path d="M3070 1157 c0 -2 6 -10 14 -16 11 -9 16 -9 22 1 4 7 4 10 -1 6 -4 -4
-14 -3 -22 3 -7 6 -13 9 -13 6z"/>
<path d="M4090 1120 c0 -5 5 -10 11 -10 5 0 7 5 4 10 -3 6 -8 10 -11 10 -2 0
-4 -4 -4 -10z"/>
<path d="M1470 1099 c0 -5 -5 -7 -11 -3 -8 4 -8 0 0 -15 7 -11 17 -21 24 -21
9 0 9 2 -1 8 -7 5 -10 16 -6 25 3 9 3 17 0 17 -3 0 -6 -5 -6 -11z"/>
<path d="M1515 1010 c-3 -5 -1 -10 4 -10 6 0 11 5 11 10 0 6 -2 10 -4 10 -3 0
-8 -4 -11 -10z"/>
<path d="M3624 999 c1 -7 9 -13 18 -15 11 -1 15 3 11 13 -4 11 -8 12 -13 3 -6
-9 -9 -9 -13 -1 -4 8 -5 8 -3 0z"/>
<path d="M1620 842 c0 -4 11 -8 25 -8 28 0 24 8 -5 13 -11 2 -20 -1 -20 -5z"/>
<path d="M3345 831 c-3 -5 0 -13 6 -17 7 -4 9 -3 5 4 -3 5 0 13 6 15 9 4 10 6
1 6 -6 1 -14 -3 -18 -8z"/>
<path d="M3767 815 c-10 -7 -14 -16 -8 -19 5 -3 12 0 14 6 4 10 8 9 16 -2 12
-17 15 -2 3 17 -5 8 -12 8 -25 -2z"/>
<path d="M3396 778 c3 -5 10 -6 15 -3 13 9 11 12 -6 12 -8 0 -12 -4 -9 -9z"/>
<path d="M4547 626 c-4 -10 -1 -13 8 -9 8 3 12 9 9 14 -7 12 -11 11 -17 -5z"/>
<path d="M1860 600 c0 -6 7 -10 15 -10 8 0 15 2 15 4 0 2 -7 6 -15 10 -8 3
-15 1 -15 -4z"/>
<path d="M4415 560 c-3 -5 -1 -10 4 -10 6 0 11 5 11 10 0 6 -2 10 -4 10 -3 0
-8 -4 -11 -10z"/>
<path d="M4397 523 c-4 -3 -7 -11 -7 -17 0 -6 5 -5 12 2 6 6 9 14 7 17 -3 3
-9 2 -12 -2z"/>
<path d="M4341 503 c-2 -20 16 -24 30 -5 13 15 12 16 -3 4 -13 -10 -17 -10
-21 0 -4 9 -6 9 -6 1z"/>
<path d="M4267 445 c3 -8 9 -12 14 -9 12 7 11 11 -5 17 -10 4 -13 1 -9 -8z"/>
<path d="M2084 430 c1 -7 6 -12 11 -12 6 -1 16 -8 23 -17 11 -14 11 -13 2 7
-6 12 -15 20 -20 17 -4 -3 -11 0 -13 5 -4 7 -5 6 -3 0z"/>
<path d="M2481 244 c0 -11 3 -14 6 -6 3 7 2 16 -1 19 -3 4 -6 -2 -5 -13z"/>
<path d="M2708 191 c5 -14 4 -14 -14 -1 -19 14 -19 14 0 -8 21 -24 28 -22 33
7 1 10 -4 18 -11 18 -9 0 -12 -7 -8 -16z"/>
<path d="M3462 185 c6 -13 16 -21 21 -18 8 5 7 8 -1 11 -7 2 -12 10 -12 18 0
8 -4 14 -10 14 -6 0 -5 -10 2 -25z"/>
<path d="M3270 160 c0 -5 5 -10 11 -10 5 0 7 5 4 10 -3 6 -8 10 -11 10 -2 0
-4 -4 -4 -10z"/>
<path d="M3110 149 c0 -5 5 -7 10 -4 6 3 10 8 10 11 0 2 -4 4 -10 4 -5 0 -10
-5 -10 -11z"/>
<path d="M3293 4413 c4 -3 1 -13 -6 -22 -11 -14 -10 -14 5 -2 16 12 16 31 1
31 -4 0 -3 -3 0 -7z"/>
<path d="M3470 4279 c0 -5 5 -7 10 -4 6 3 10 8 10 11 0 2 -4 4 -10 4 -5 0 -10
-5 -10 -11z"/>
<path d="M3478 4203 c7 -3 16 -2 19 1 4 3 -2 6 -13 5 -11 0 -14 -3 -6 -6z"/>
<path d="M2590 4000 c0 -5 5 -10 11 -10 5 0 7 5 4 10 -3 6 -8 10 -11 10 -2 0
-4 -4 -4 -10z"/>
<path d="M2685 3840 c-3 -6 1 -7 9 -4 18 7 21 14 7 14 -6 0 -13 -4 -16 -10z"/>
<path d="M3981 3834 c0 -11 3 -14 6 -6 3 7 2 16 -1 19 -3 4 -6 -2 -5 -13z"/>
<path d="M2730 3799 c0 -5 -6 -7 -12 -3 -7 4 -5 -2 6 -14 22 -25 41 -19 26 9
-12 21 -20 25 -20 8z"/>
<path d="M2770 3740 c0 -5 5 -10 11 -10 5 0 7 5 4 10 -3 6 -8 10 -11 10 -2 0
-4 -4 -4 -10z"/>
<path d="M2746 3694 c-5 -14 -4 -15 9 -4 17 14 19 20 6 20 -5 0 -12 -7 -15
-16z"/>
<path d="M2617 3666 c-3 -8 -2 -18 3 -21 13 -8 20 9 11 24 -6 10 -10 9 -14 -3z"/>
<path d="M4055 3649 c-4 -6 -5 -12 -2 -15 2 -3 7 2 10 11 7 17 1 20 -8 4z"/>
<path d="M2450 3640 c0 -5 5 -10 11 -10 5 0 7 5 4 10 -3 6 -8 10 -11 10 -2 0
-4 -4 -4 -10z"/>
<path d="M2483 3635 c0 -8 4 -12 9 -9 5 3 6 10 3 15 -9 13 -12 11 -12 -6z"/>
<path d="M4170 3595 c0 -8 4 -15 10 -15 5 0 7 7 4 15 -4 8 -8 15 -10 15 -2 0
-4 -7 -4 -15z"/>
<path d="M2278 3553 c6 -2 9 -10 6 -15 -4 -7 -2 -8 5 -4 13 9 5 26 -12 25 -9
0 -8 -2 1 -6z"/>
<path d="M2206 3504 c-5 -14 -4 -15 9 -4 17 14 19 20 6 20 -5 0 -12 -7 -15
-16z"/>
<path d="M2137 3477 c-3 -8 1 -14 8 -14 7 0 11 6 8 14 -3 7 -6 13 -8 13 -2 0
-5 -6 -8 -13z"/>
<path d="M4450 3480 c0 -6 -4 -9 -9 -5 -5 3 -12 1 -16 -4 -3 -6 4 -8 16 -6 27
5 33 11 20 20 -6 3 -11 1 -11 -5z"/>
<path d="M2070 3439 c0 -5 5 -7 10 -4 6 3 10 8 10 11 0 2 -4 4 -10 4 -5 0 -10
-5 -10 -11z"/>
<path d="M4600 3342 c0 -5 7 -15 15 -22 8 -7 15 -9 15 -6 0 4 -7 14 -15 22 -8
9 -15 11 -15 6z"/>
<path d="M1650 3166 c0 -3 9 -10 20 -16 11 -6 20 -8 20 -6 0 3 -9 10 -20 16
-11 6 -20 8 -20 6z"/>
<path d="M1593 3115 c0 -8 4 -12 9 -9 5 3 6 10 3 15 -9 13 -12 11 -12 -6z"/>
<path d="M1568 3073 c6 -2 9 -10 6 -15 -4 -7 -2 -8 5 -4 13 9 5 26 -12 25 -9
0 -8 -2 1 -6z"/>
<path d="M4895 3060 c3 -5 8 -10 11 -10 2 0 4 5 4 10 0 6 -5 10 -11 10 -5 0
-7 -4 -4 -10z"/>
<path d="M5210 2999 c0 -5 -5 -7 -12 -3 -7 4 -8 3 -4 -5 6 -9 11 -9 22 0 17
14 18 19 4 19 -5 0 -10 -5 -10 -11z"/>
<path d="M5239 2993 c-13 -16 -12 -17 4 -4 9 7 17 15 17 17 0 8 -8 3 -21 -13z"/>
<path d="M5314 2991 c1 -16 36 -25 36 -9 0 6 -6 8 -14 5 -8 -3 -17 -1 -19 6
-2 7 -4 6 -3 -2z"/>
<path d="M5165 2970 c-3 -6 1 -7 9 -4 18 7 21 14 7 14 -6 0 -13 -4 -16 -10z"/>
<path d="M1377 2863 c-4 -3 -7 -11 -7 -17 0 -6 5 -5 12 2 6 6 9 14 7 17 -3 3
-9 2 -12 -2z"/>
<path d="M1315 2800 c-3 -5 -1 -10 4 -10 6 0 11 5 11 10 0 6 -2 10 -4 10 -3 0
-8 -4 -11 -10z"/>
<path d="M5700 2806 c0 -2 7 -9 15 -16 13 -11 14 -10 9 4 -5 14 -24 23 -24 12z"/>
<path d="M1065 2460 c-3 -6 1 -7 9 -4 18 7 21 14 7 14 -6 0 -13 -4 -16 -10z"/>
<path d="M555 2440 c3 -5 8 -10 11 -10 2 0 4 5 4 10 0 6 -5 10 -11 10 -5 0 -7
-4 -4 -10z"/>
<path d="M366 2333 c-6 -14 -5 -15 5 -6 7 7 10 15 7 18 -3 3 -9 -2 -12 -12z"/>
<path d="M326 2322 c-3 -5 1 -9 9 -9 8 0 15 4 15 9 0 4 -4 8 -9 8 -6 0 -12 -4
-15 -8z"/>
<path d="M199 2207 c6 -8 7 -18 3 -22 -4 -5 -1 -5 6 -1 10 6 10 11 1 22 -6 8
-14 14 -16 14 -3 0 0 -6 6 -13z"/>
<path d="M5878 2183 c7 -3 16 -2 19 1 4 3 -2 6 -13 5 -11 0 -14 -3 -6 -6z"/>
<path d="M5756 1971 c-3 -5 1 -11 9 -14 9 -4 12 -1 8 9 -6 16 -10 17 -17 5z"/>
<path d="M5471 1754 c0 -11 3 -14 6 -6 3 7 2 16 -1 19 -3 4 -6 -2 -5 -13z"/>
<path d="M5427 1739 c7 -7 15 -10 18 -7 3 3 -2 9 -12 12 -14 6 -15 5 -6 -5z"/>
<path d="M5330 1360 c0 -5 5 -10 10 -10 6 0 10 5 10 10 0 6 -4 10 -10 10 -5 0
-10 -4 -10 -10z"/>
<path d="M204 1245 c8 -8 18 -15 22 -15 3 0 1 7 -6 15 -7 8 -17 15 -22 15 -5
0 -3 -7 6 -15z"/>
<path d="M5264 1218 c-10 -12 -14 -18 -7 -15 6 4 14 1 17 -5 3 -7 4 -4 3 7 -1
12 3 19 11 17 8 -1 11 2 7 8 -8 14 -9 13 -31 -12z"/>
<path d="M275 1169 c-4 -5 -4 -13 -1 -16 3 -4 6 0 6 8 0 11 2 11 10 -1 6 -9
10 -10 10 -3 0 17 -17 25 -25 12z"/>
<path d="M5226 1151 c-3 -5 1 -11 9 -14 9 -4 12 -1 8 9 -6 16 -10 17 -17 5z"/>
<path d="M378 1108 c10 -13 10 -17 0 -20 -8 -3 -6 -6 5 -11 26 -10 29 8 4 29
-15 14 -18 14 -9 2z"/>
<path d="M504 1028 c10 -6 22 -6 26 -2 5 5 -3 10 -18 11 -22 1 -24 0 -8 -9z"/>
<path d="M776 983 c-6 -14 -5 -15 5 -6 7 7 10 15 7 18 -3 3 -9 -2 -12 -12z"/>
<path d="M5110 959 c0 -6 4 -8 9 -5 5 4 11 1 13 -6 3 -8 6 -7 10 3 4 10 -1 15
-13 16 -10 1 -19 -3 -19 -8z"/>
<path d="M1130 940 c0 -5 5 -10 11 -10 5 0 7 5 4 10 -3 6 -8 10 -11 10 -2 0
-4 -4 -4 -10z"/>
<path d="M4955 749 c-4 -6 -5 -12 -2 -15 2 -3 7 2 10 11 7 17 1 20 -8 4z"/>
<path d="M1387 619 c7 -7 15 -10 18 -7 3 3 -2 9 -12 12 -14 6 -15 5 -6 -5z"/>
<path d="M1636 438 c3 -5 10 -6 15 -3 13 9 11 12 -6 12 -8 0 -12 -4 -9 -9z"/>
<path d="M1855 310 c-3 -5 -1 -10 4 -10 6 0 11 5 11 10 0 6 -2 10 -4 10 -3 0
-8 -4 -11 -10z"/>
<path d="M4272 279 c-19 -7 -23 -29 -6 -29 3 0 2 5 -1 10 -5 9 15 15 38 11 4
0 7 4 7 9 0 12 -7 12 -38 -1z"/>
<path d="M1990 260 c0 -5 5 -10 11 -10 5 0 7 5 4 10 -3 6 -8 10 -11 10 -2 0
-4 -4 -4 -10z"/>
<path d="M3995 179 c-4 -6 -4 -13 -1 -16 3 -4 6 -1 6 6 0 7 5 9 12 5 7 -4 8
-3 4 4 -9 15 -13 15 -21 1z"/>
<path d="M3777 121 c-8 -9 -17 -23 -21 -31 -4 -8 -1 -7 7 3 8 10 17 14 19 10
3 -4 3 -2 1 6 -2 9 3 12 15 9 11 -3 19 0 19 7 0 17 -25 14 -40 -4z"/>
<path d="M2713 35 c0 -8 4 -12 9 -9 5 3 6 10 3 15 -9 13 -12 11 -12 -6z"/>
<path d="M2876 32 c-3 -5 1 -9 9 -9 8 0 12 4 9 9 -3 4 -7 8 -9 8 -2 0 -6 -4
-9 -8z"/>
<path d="M3256 28 c3 -5 10 -6 15 -3 13 9 11 12 -6 12 -8 0 -12 -4 -9 -9z"/>
</g>
</svg>
